STARTFONT 2.1
COMMENT
COMMENT Converted from OpenType font "..\ttf\ITC Avant Garde Gothic CE Book.otf" by "otf2bdf.exe 3.0".
COMMENT
FONT -FreeType-AvantGarde CE-Medium-R-Normal--35-250-100-100-P-160-ISO10646-1
SIZE 25 100 100
FONTBOUNDINGBOX 42 42 -2 -8
STARTPROPERTIES 19
FOUNDRY "FreeType"
FAMILY_NAME "AvantGarde CE"
WEIGHT_NAME "Medium"
SLANT "R"
SETWIDTH_NAME "Normal"
ADD_STYLE_NAME ""
PIXEL_SIZE 35
POINT_SIZE 250
RESOLUTION_X 100
RESOLUTION_Y 100
SPACING "P"
AVERAGE_WIDTH 160
CHARSET_REGISTRY "ISO10646"
CHARSET_ENCODING "1"
FONT_ASCENT 25
FONT_DESCENT 6
COPYRIGHT "Copyright (c) 1985, 1987, 1989, 1990, 1991, 1992, 1997 Adobe Systems Incorporated.  All Rights Reserved.ITC Avant Garde Gothic is a registered trademark of International Typeface Corporation."
_OTF_FONTFILE "..\ttf\ITC Avant Garde Gothic CE Book.otf"
_OTF_PSNAME "AvantGardeCE-Book"
ENDPROPERTIES
CHARS 260
STARTCHAR 0020
ENCODING 32
SWIDTH 288 0
DWIDTH 10 0
BBX 0 0 0 0
BITMAP
ENDCHAR
STARTCHAR 0021
ENCODING 33
SWIDTH 288 0
DWIDTH 10 0
BBX 2 26 4 0
BITMAP
C0
C0
C0
C0
C0
C0
C0
C0
C0
C0
C0
C0
C0
C0
C0
C0
C0
C0
C0
00
00
00
C0
C0
C0
C0
ENDCHAR
STARTCHAR 0022
ENCODING 34
SWIDTH 316 0
DWIDTH 11 0
BBX 7 10 2 15
BITMAP
C6
C6
C6
C6
C6
C6
C6
C6
C6
C6
ENDCHAR
STARTCHAR 0023
ENCODING 35
SWIDTH 547 0
DWIDTH 19 0
BBX 17 26 1 0
BITMAP
030600
030600
030E00
030E00
070E00
070C00
070C00
060C00
7FFF80
7FFF80
061C00
0E1C00
0E1800
0E1800
0C1800
0C1800
0C3800
FFFF00
FFFF00
1C3000
1C3000
183000
183000
187000
187000
387000
ENDCHAR
STARTCHAR 0024
ENCODING 36
SWIDTH 547 0
DWIDTH 19 0
BBX 13 30 3 -2
BITMAP
0600
0600
0600
1FC0
3FE0
7070
E038
C018
C018
C000
E000
6000
7C00
3F80
0FE0
00F0
0030
0038
0018
C018
C018
C018
E030
7070
3FE0
1FC0
0600
0600
0600
0600
ENDCHAR
STARTCHAR 0025
ENCODING 37
SWIDTH 777 0
DWIDTH 27 0
BBX 25 26 1 0
BITMAP
0F803800
3FC03000
70E06000
E0706000
C030C000
C030C000
C0318000
C0338000
E0730000
70E70000
3FC60000
1F8C0000
000C0000
00180000
00387800
0031FE00
00738700
00670380
00C60180
00C60180
01860180
03860180
03070380
07038700
0601FE00
0C007800
ENDCHAR
STARTCHAR 0026
ENCODING 38
SWIDTH 748 0
DWIDTH 26 0
BBX 23 26 2 0
BITMAP
01E000
07F800
0FFC00
1C0E00
180600
180600
180600
1C0E00
0E1C00
0F7838
07F038
0FC070
1EE070
3870E0
7038E0
601DC0
E00FC0
C00780
C00380
C007C0
E006E0
600E70
701C38
3EF81C
1FF00E
07C004
ENDCHAR
STARTCHAR 0027
ENCODING 39
SWIDTH 201 0
DWIDTH 7 0
BBX 2 10 2 15
BITMAP
C0
C0
C0
C0
C0
C0
C0
C0
C0
C0
ENDCHAR
STARTCHAR 0028
ENCODING 40
SWIDTH 374 0
DWIDTH 13 0
BBX 10 33 2 -7
BITMAP
0040
01C0
03C0
0780
0F00
1E00
1C00
3800
3000
7000
6000
6000
E000
C000
C000
C000
C000
C000
C000
C000
E000
6000
6000
7000
3000
3800
1C00
1C00
0F00
0780
03C0
01C0
0040
ENDCHAR
STARTCHAR 0029
ENCODING 41
SWIDTH 374 0
DWIDTH 13 0
BBX 10 33 1 -6
BITMAP
C000
E000
F000
3800
1C00
0E00
0E00
0700
0300
0380
0180
0180
01C0
00C0
00C0
00C0
00C0
00C0
00C0
01C0
01C0
0180
0180
0380
0300
0700
0E00
1C00
3C00
7800
F000
C000
8000
ENDCHAR
STARTCHAR 002A
ENCODING 42
SWIDTH 432 0
DWIDTH 15 0
BBX 10 10 2 15
BITMAP
0C00
0C00
0C00
ECC0
FFC0
3F00
1E00
3F00
7380
2100
ENDCHAR
STARTCHAR 002B
ENCODING 43
SWIDTH 604 0
DWIDTH 21 0
BBX 18 18 1 0
BITMAP
00C000
00C000
00C000
00C000
00C000
00C000
00C000
00C000
FFFFC0
FFFFC0
00C000
00C000
00C000
00C000
00C000
00C000
00C000
00C000
ENDCHAR
STARTCHAR 002C
ENCODING 44
SWIDTH 288 0
DWIDTH 10 0
BBX 6 7 0 -2
BITMAP
1C
18
38
30
70
60
E0
ENDCHAR
STARTCHAR 002D
ENCODING 45
SWIDTH 345 0
DWIDTH 12 0
BBX 9 2 1 8
BITMAP
FF80
FF80
ENDCHAR
STARTCHAR 002E
ENCODING 46
SWIDTH 288 0
DWIDTH 10 0
BBX 2 4 4 1
BITMAP
C0
C0
C0
C0
ENDCHAR
STARTCHAR 002F
ENCODING 47
SWIDTH 432 0
DWIDTH 15 0
BBX 12 29 2 -4
BITMAP
0070
0070
0060
00E0
00E0
00C0
01C0
01C0
0180
0380
0380
0300
0700
0700
0600
0E00
0E00
0C00
1C00
1C00
1800
3800
3800
3000
3000
7000
6000
6000
E000
ENDCHAR
STARTCHAR 0030
ENCODING 48
SWIDTH 547 0
DWIDTH 19 0
BBX 17 26 1 0
BITMAP
03F000
0FFC00
3E3E00
380F00
700700
600380
E00380
C00180
C00180
C00180
C00180
C00180
C00180
C00180
C00180
C00180
C00180
C00180
C00180
E00180
600300
700700
380E00
3E3E00
1FFC00
07E000
ENDCHAR
STARTCHAR 0031
ENCODING 49
SWIDTH 547 0
DWIDTH 19 0
BBX 6 26 5 0
BITMAP
FC
FC
0C
0C
0C
0C
0C
0C
0C
0C
0C
0C
0C
0C
0C
0C
0C
0C
0C
0C
0C
0C
0C
0C
0C
0C
ENDCHAR
STARTCHAR 0032
ENCODING 50
SWIDTH 547 0
DWIDTH 19 0
BBX 15 26 2 0
BITMAP
07C0
1FF0
3C78
701C
600C
E00E
C006
C006
C006
0006
000E
000C
001C
0038
0070
00E0
01C0
0380
0700
0E00
1C00
3800
7000
E000
FFFE
FFFE
ENDCHAR
STARTCHAR 0033
ENCODING 51
SWIDTH 547 0
DWIDTH 19 0
BBX 16 26 1 0
BITMAP
03C0
0FF0
1E78
181C
380C
300C
300C
000C
001C
0038
03F0
03F8
003C
000E
0006
0007
0003
0003
C003
C003
E007
6006
780E
3E7C
1FF8
07E0
ENDCHAR
STARTCHAR 0034
ENCODING 52
SWIDTH 547 0
DWIDTH 19 0
BBX 17 26 1 0
BITMAP
000E00
001E00
001E00
003E00
007600
007600
00E600
01C600
01C600
038600
070600
070600
0E0600
1C0600
1C0600
380600
300600
700600
E00600
FFFF80
FFFF80
000600
000600
000600
000600
000600
ENDCHAR
STARTCHAR 0035
ENCODING 53
SWIDTH 547 0
DWIDTH 19 0
BBX 17 26 1 0
BITMAP
0FFE00
1FFE00
1C0000
1C0000
180000
180000
180000
380000
380000
3BF000
3FFC00
3C1E00
780700
100300
000380
000180
000180
000180
E00180
E00380
600300
700700
380E00
3F3E00
0FF800
03E000
ENDCHAR
STARTCHAR 0036
ENCODING 54
SWIDTH 547 0
DWIDTH 19 0
BBX 17 26 1 0
BITMAP
007000
00E000
01E000
01C000
038000
038000
070000
0E0000
0E0000
1FF000
3FFC00
3C1E00
700700
600300
E00380
C00180
C00180
C00180
C00180
C00180
E00300
700700
780E00
3E7E00
1FF800
07E000
ENDCHAR
STARTCHAR 0037
ENCODING 55
SWIDTH 547 0
DWIDTH 19 0
BBX 15 26 2 0
BITMAP
FFFE
FFFE
000E
000C
001C
001C
0038
0038
0030
0070
0060
00E0
00C0
01C0
01C0
0380
0380
0700
0700
0600
0E00
0C00
1C00
1800
3800
3800
ENDCHAR
STARTCHAR 0038
ENCODING 56
SWIDTH 547 0
DWIDTH 19 0
BBX 16 26 1 0
BITMAP
07E0
0FF0
1E7C
381C
700E
6006
6006
6006
700E
380C
3C3C
1FF8
1FF8
3C3C
700E
6007
E003
C003
C003
C003
E003
6006
700E
3E7C
1FF8
07E0
ENDCHAR
STARTCHAR 0039
ENCODING 57
SWIDTH 547 0
DWIDTH 19 0
BBX 17 26 1 0
BITMAP
03E000
0FF800
3E3E00
380E00
700700
600300
C00380
C00180
C00180
C00180
C00180
C00380
E00300
700700
380E00
3E3E00
1FFC00
07F800
003800
007000
006000
00E000
01C000
038000
038000
070000
ENDCHAR
STARTCHAR 003A
ENCODING 58
SWIDTH 288 0
DWIDTH 10 0
BBX 2 19 4 0
BITMAP
C0
C0
C0
C0
00
00
00
00
00
00
00
00
00
00
00
C0
C0
C0
C0
ENDCHAR
STARTCHAR 003B
ENCODING 59
SWIDTH 288 0
DWIDTH 10 0
BBX 5 21 1 -2
BITMAP
18
18
18
18
00
00
00
00
00
00
00
00
00
00
18
30
30
70
60
E0
E0
ENDCHAR
STARTCHAR 003C
ENCODING 60
SWIDTH 604 0
DWIDTH 21 0
BBX 18 18 2 1
BITMAP
000040
0003C0
000F80
003E00
00F800
07E000
1F0000
7C0000
F00000
F00000
7C0000
1F8000
03E000
00F800
003E00
000FC0
0001C0
000040
ENDCHAR
STARTCHAR 003D
ENCODING 61
SWIDTH 604 0
DWIDTH 21 0
BBX 18 9 2 5
BITMAP
FFFFC0
FFFFC0
000000
000000
000000
000000
000000
FFFFC0
FFFFC0
ENDCHAR
STARTCHAR 003E
ENCODING 62
SWIDTH 604 0
DWIDTH 21 0
BBX 18 18 2 1
BITMAP
800000
F00000
7C0000
1F0000
07C000
01F800
003E00
000F80
0003C0
0003C0
000F80
007E00
01F000
07C000
1F0000
FC0000
E00000
800000
ENDCHAR
STARTCHAR 003F
ENCODING 63
SWIDTH 604 0
DWIDTH 21 0
BBX 16 26 2 0
BITMAP
07E0
1FF8
3EFC
701E
6006
E007
C003
C003
0003
0007
0006
000E
001C
0038
0070
00E0
00C0
0180
0180
0000
0000
0000
0180
0180
0180
0180
ENDCHAR
STARTCHAR 0040
ENCODING 64
SWIDTH 864 0
DWIDTH 30 0
BBX 26 26 2 0
BITMAP
003FC000
01FFF000
03C07C00
0F000E00
1C000700
38000380
30000180
701F3180
603FB1C0
6071F0C0
E0C0F0C0
C1C070C0
C18070C0
C18060C0
C18060C0
C1806180
E180E180
61C1E380
60E3E700
707F7E00
383E3C00
1C000000
0E000000
07C00E00
01FFFC00
003FE000
ENDCHAR
STARTCHAR 0041
ENCODING 65
SWIDTH 748 0
DWIDTH 26 0
BBX 25 26 0 0
BITMAP
001C0000
003E0000
003E0000
00360000
00770000
00630000
00E38000
00E38000
01C1C000
01C1C000
0180C000
0380E000
0300E000
07007000
07007000
0FFFF800
0FFFF800
0C001800
1C001C00
18001C00
38000E00
38000E00
70000700
70000700
60000300
E0000380
ENDCHAR
STARTCHAR 0042
ENCODING 66
SWIDTH 576 0
DWIDTH 20 0
BBX 15 26 3 0
BITMAP
FFC0
FFF0
C1F8
C038
C01C
C00C
C00C
C00C
C00C
C01C
C018
C078
FFF0
FFF8
C03C
C01C
C00E
C006
C006
C006
C006
C00E
C01C
C07C
FFF0
FFC0
ENDCHAR
STARTCHAR 0043
ENCODING 67
SWIDTH 806 0
DWIDTH 28 0
BBX 24 26 2 0
BITMAP
007F80
01FFE0
07E1F8
0F003C
1C001E
38000F
300007
700000
600000
E00000
C00000
C00000
C00000
C00000
C00000
C00000
E00000
600000
700000
300003
380007
1E000E
0F003C
07E1F8
01FFE0
007F00
ENDCHAR
STARTCHAR 0044
ENCODING 68
SWIDTH 748 0
DWIDTH 26 0
BBX 21 26 3 0
BITMAP
FFE000
FFFC00
C0FF00
C00780
C001C0
C000E0
C00060
C00070
C00030
C00038
C00018
C00018
C00018
C00018
C00018
C00018
C00038
C00030
C00070
C00060
C000E0
C001C0
C00780
C07F00
FFFC00
FFE000
ENDCHAR
STARTCHAR 0045
ENCODING 69
SWIDTH 547 0
DWIDTH 19 0
BBX 13 26 3 0
BITMAP
FFF8
FFF8
C000
C000
C000
C000
C000
C000
C000
C000
C000
C000
FFF8
FFF8
C000
C000
C000
C000
C000
C000
C000
C000
C000
C000
FFF8
FFF8
ENDCHAR
STARTCHAR 0046
ENCODING 70
SWIDTH 489 0
DWIDTH 17 0
BBX 12 26 3 0
BITMAP
FFF0
FFF0
C000
C000
C000
C000
C000
C000
C000
C000
C000
C000
FFF0
FFF0
C000
C000
C000
C000
C000
C000
C000
C000
C000
C000
C000
C000
ENDCHAR
STARTCHAR 0047
ENCODING 71
SWIDTH 864 0
DWIDTH 30 0
BBX 27 26 1 0
BITMAP
003F8000
01FFF000
03F1F800
0F003E00
1E000F00
18000780
38000380
70000000
60000000
60000000
E0000000
C0000000
C0000000
C0000000
C03FFFE0
E03FFFE0
600000E0
600001C0
700001C0
38000380
18000780
1E000F00
0F003E00
03F0F800
01FFF000
003F8000
ENDCHAR
STARTCHAR 0048
ENCODING 72
SWIDTH 691 0
DWIDTH 24 0
BBX 18 26 3 0
BITMAP
C000C0
C000C0
C000C0
C000C0
C000C0
C000C0
C000C0
C000C0
C000C0
C000C0
C000C0
C000C0
FFFFC0
FFFFC0
C000C0
C000C0
C000C0
C000C0
C000C0
C000C0
C000C0
C000C0
C000C0
C000C0
C000C0
C000C0
ENDCHAR
STARTCHAR 0049
ENCODING 73
SWIDTH 230 0
DWIDTH 8 0
BBX 2 26 3 0
BITMAP
C0
C0
C0
C0
C0
C0
C0
C0
C0
C0
C0
C0
C0
C0
C0
C0
C0
C0
C0
C0
C0
C0
C0
C0
C0
C0
ENDCHAR
STARTCHAR 004A
ENCODING 74
SWIDTH 489 0
DWIDTH 17 0
BBX 13 26 0 0
BITMAP
0018
0018
0018
0018
0018
0018
0018
0018
0018
0018
0018
0018
0018
0018
0018
0018
0018
0018
0018
C018
E018
E038
7038
7CF0
3FE0
0F80
ENDCHAR
STARTCHAR 004B
ENCODING 75
SWIDTH 604 0
DWIDTH 21 0
BBX 17 26 3 0
BITMAP
C00780
C00700
C00E00
C01C00
C03C00
C03800
C07000
C0E000
C1C000
C3C000
C38000
C70000
CE0000
DF0000
FF0000
FB8000
F1C000
E1E000
C0E000
C07000
C03800
C03C00
C01C00
C00E00
C00700
C00380
ENDCHAR
STARTCHAR 004C
ENCODING 76
SWIDTH 460 0
DWIDTH 16 0
BBX 13 26 3 0
BITMAP
C000
C000
C000
C000
C000
C000
C000
C000
C000
C000
C000
C000
C000
C000
C000
C000
C000
C000
C000
C000
C000
C000
C000
C000
FFF8
FFF8
ENDCHAR
STARTCHAR 004D
ENCODING 77
SWIDTH 921 0
DWIDTH 32 0
BBX 26 26 3 0
BITMAP
F00003C0
F00003C0
F00007C0
F80006C0
D8000EC0
DC000EC0
CC000CC0
CE001CC0
CE0018C0
C70038C0
C70038C0
C30070C0
C38070C0
C18060C0
C1C0E0C0
C1C0C0C0
C0E1C0C0
C0E1C0C0
C06380C0
C07380C0
C07300C0
C03F00C0
C03E00C0
C01E00C0
C01E00C0
C00C00C0
ENDCHAR
STARTCHAR 004E
ENCODING 78
SWIDTH 748 0
DWIDTH 26 0
BBX 20 26 3 0
BITMAP
E00030
F00030
F80030
F80030
DC0030
CE0030
CE0030
C70030
C38030
C38030
C1C030
C0E030
C07030
C07030
C03830
C01C30
C01C30
C00E30
C00730
C00730
C003B0
C001F0
C001F0
C000F0
C00070
C00070
ENDCHAR
STARTCHAR 004F
ENCODING 79
SWIDTH 864 0
DWIDTH 30 0
BBX 26 26 2 0
BITMAP
003F8000
01FFE000
07E1F800
0F003C00
1C000E00
38000700
30000300
70000380
60000180
E00001C0
C00000C0
C00000C0
C00000C0
C00000C0
C00000C0
C00000C0
E00001C0
60000180
70000380
30000300
38000700
1C000E00
0F003C00
07E1F800
01FFE000
007F0000
ENDCHAR
STARTCHAR 0050
ENCODING 80
SWIDTH 604 0
DWIDTH 21 0
BBX 16 26 3 0
BITMAP
FFE0
FFF8
C07C
C00E
C006
C007
C003
C003
C003
C003
C007
C006
C00E
C07C
FFF8
FFE0
C000
C000
C000
C000
C000
C000
C000
C000
C000
C000
ENDCHAR
STARTCHAR 0051
ENCODING 81
SWIDTH 864 0
DWIDTH 30 0
BBX 28 26 1 0
BITMAP
003FC000
00FFF800
03F0FC00
07801F00
0E000780
1C000380
380001C0
300000E0
60000060
60000060
E0000070
C0000030
C0000030
C0000030
C0000030
C0000030
FFFC0070
7FFF8060
700FE0E0
3001F0C0
38007DC0
1E001F80
0F000F00
03F0FFC0
01FFF9F0
003FC070
ENDCHAR
STARTCHAR 0052
ENCODING 82
SWIDTH 604 0
DWIDTH 21 0
BBX 16 26 3 0
BITMAP
FFE0
FFF8
C07C
C00E
C006
C007
C003
C003
C003
C003
C003
C007
C00E
C03C
C7FC
C3F0
C380
C1C0
C0E0
C0E0
C070
C038
C038
C01C
C00E
C006
ENDCHAR
STARTCHAR 0053
ENCODING 83
SWIDTH 489 0
DWIDTH 17 0
BBX 14 26 1 0
BITMAP
07C0
1FF0
3EF8
3038
701C
600C
600C
6000
6000
7000
3C00
1F00
0FE0
01F0
0078
0018
001C
000C
000C
E00C
E00C
601C
7038
3EF8
1FF0
07C0
ENDCHAR
STARTCHAR 0054
ENCODING 84
SWIDTH 432 0
DWIDTH 15 0
BBX 14 26 0 0
BITMAP
FFFC
FFFC
0300
0300
0300
0300
0300
0300
0300
0300
0300
0300
0300
0300
0300
0300
0300
0300
0300
0300
0300
0300
0300
0300
0300
0300
ENDCHAR
STARTCHAR 0055
ENCODING 85
SWIDTH 662 0
DWIDTH 23 0
BBX 17 26 3 0
BITMAP
C00180
C00180
C00180
C00180
C00180
C00180
C00180
C00180
C00180
C00180
C00180
C00180
C00180
C00180
C00180
C00180
C00180
C00180
C00180
E00380
600300
700700
780E00
3E7E00
1FF800
07E000
ENDCHAR
STARTCHAR 0056
ENCODING 86
SWIDTH 691 0
DWIDTH 24 0
BBX 24 26 0 0
BITMAP
E00007
700006
70000E
30000E
38001C
38001C
1C0018
1C0038
0C0038
0E0070
0E0070
070060
0700E0
0300C0
0381C0
0181C0
01C180
01C380
00C300
00E700
006700
007600
007E00
003C00
003C00
001C00
ENDCHAR
STARTCHAR 0057
ENCODING 87
SWIDTH 950 0
DWIDTH 33 0
BBX 32 26 1 0
BITMAP
C0038007
C0038007
E003C006
E003C00E
6007C00E
7006C00C
7006E00C
300EE01C
300E601C
380C6018
380C7038
181C7038
1C1C3030
1C183830
1C183870
0C381870
0E381860
0E301C60
06301CE0
06700CC0
07600CC0
07600FC0
03E00FC0
03E00780
03C00780
01C00780
ENDCHAR
STARTCHAR 0058
ENCODING 88
SWIDTH 604 0
DWIDTH 21 0
BBX 21 26 0 0
BITMAP
700070
7800E0
3800E0
1C01C0
1E0380
0E0380
070700
078F00
038E00
01DC00
01FC00
00F800
007000
00F800
00F800
01DC00
038E00
038E00
070700
0E0380
0E0380
1C01C0
3800E0
3800E0
700070
E00038
ENDCHAR
STARTCHAR 0059
ENCODING 89
SWIDTH 604 0
DWIDTH 21 0
BBX 20 26 0 0
BITMAP
E00070
700060
7000E0
3800C0
3801C0
1C0180
1C0380
0E0300
0E0700
070600
070E00
038C00
039C00
01D800
00F800
00F000
007000
006000
006000
006000
006000
006000
006000
006000
006000
006000
ENDCHAR
STARTCHAR 005A
ENCODING 90
SWIDTH 489 0
DWIDTH 17 0
BBX 16 26 0 0
BITMAP
FFFF
FFFF
0007
000E
000E
001C
0038
0038
0070
0070
00E0
01C0
01C0
0380
0380
0700
0E00
0E00
1C00
1800
3800
7000
7000
E000
FFFF
FFFF
ENDCHAR
STARTCHAR 005B
ENCODING 91
SWIDTH 345 0
DWIDTH 12 0
BBX 6 32 5 -7
BITMAP
04
1C
3C
38
70
60
E0
C0
C0
C0
C0
C0
C0
C0
C0
C0
C0
C0
C0
C0
C0
C0
C0
C0
C0
C0
E0
60
70
3C
1C
0C
ENDCHAR
STARTCHAR 005C
ENCODING 92
SWIDTH 604 0
DWIDTH 21 0
BBX 12 29 4 -4
BITMAP
E000
E000
7000
7000
3000
3800
3800
1800
1C00
1C00
0C00
0E00
0E00
0600
0700
0700
0300
0380
0380
0180
01C0
01C0
00C0
00E0
00E0
0060
0070
0070
0030
ENDCHAR
STARTCHAR 005D
ENCODING 93
SWIDTH 345 0
DWIDTH 12 0
BBX 6 32 1 -7
BITMAP
80
E0
F0
78
38
1C
0C
0C
0C
0C
0C
0C
0C
0C
0C
0C
0C
0C
0C
0C
0C
0C
0C
0C
0C
0C
1C
18
38
F0
E0
C0
ENDCHAR
STARTCHAR 005E
ENCODING 94
SWIDTH 604 0
DWIDTH 21 0
BBX 17 15 2 10
BITMAP
01C000
01C000
03E000
036000
077000
063000
0E3800
0C1800
1C1C00
180C00
380E00
300600
700700
600300
E00380
ENDCHAR
STARTCHAR 005F
ENCODING 95
SWIDTH 489 0
DWIDTH 17 0
BBX 17 2 0 -5
BITMAP
FFFF80
FFFF80
ENDCHAR
STARTCHAR 0060
ENCODING 96
SWIDTH 374 0
DWIDTH 13 0
BBX 8 6 2 22
BITMAP
40
F0
7C
3E
0F
02
ENDCHAR
STARTCHAR 0061
ENCODING 97
SWIDTH 691 0
DWIDTH 24 0
BBX 19 19 2 0
BITMAP
01F860
0FFE60
1E0F60
3803E0
7001E0
6000E0
E000E0
C00060
C00060
C00060
C00060
C00060
E000E0
6000E0
7001E0
3803E0
1F0F60
0FFE60
03F860
ENDCHAR
STARTCHAR 0062
ENCODING 98
SWIDTH 691 0
DWIDTH 24 0
BBX 20 26 2 0
BITMAP
C00000
C00000
C00000
C00000
C00000
C00000
C00000
C1F800
C7FF00
DF0F80
F801C0
F000E0
E00060
E00070
C00030
C00030
C00030
C00030
C00030
E00070
E00060
F000E0
FC01C0
DF0F80
C7FF00
C1F800
ENDCHAR
STARTCHAR 0063
ENCODING 99
SWIDTH 633 0
DWIDTH 22 0
BBX 19 19 1 0
BITMAP
01F800
07FF00
1F0F80
3803C0
3000E0
6000E0
600000
C00000
C00000
C00000
C00000
E00000
E00000
600060
7000E0
3C01C0
1F0F80
0FFE00
01F800
ENDCHAR
STARTCHAR 0064
ENCODING 100
SWIDTH 691 0
DWIDTH 24 0
BBX 20 26 1 0
BITMAP
000030
000030
000030
000030
000030
000030
000030
01F830
07FF30
1F0FB0
3801F0
3000F0
600070
600070
C00030
C00030
C00030
C00030
C00030
E00070
600070
7000F0
3C01F0
1F0FB0
07FF30
01F830
ENDCHAR
STARTCHAR 0065
ENCODING 101
SWIDTH 662 0
DWIDTH 23 0
BBX 19 19 1 0
BITMAP
03F800
0FFE00
1E1F00
380380
7001C0
6000C0
E000E0
C00060
FFFFE0
FFFFE0
C00000
C00000
6000E0
6000C0
7001C0
380380
1E0F00
0FFE00
03F000
ENDCHAR
STARTCHAR 0066
ENCODING 102
SWIDTH 316 0
DWIDTH 11 0
BBX 10 26 1 0
BITMAP
03C0
07C0
0F80
1C00
1800
1800
1800
FFC0
FFC0
1800
1800
1800
1800
1800
1800
1800
1800
1800
1800
1800
1800
1800
1800
1800
1800
1800
ENDCHAR
STARTCHAR 0067
ENCODING 103
SWIDTH 662 0
DWIDTH 23 0
BBX 20 26 1 -7
BITMAP
01F830
07FE30
1F0FB0
3C03F0
3000F0
600070
600070
C00030
C00030
C00030
C00030
E00030
E00070
600070
7000F0
3C01F0
1F0FB0
07FE30
01F830
600070
700060
3800E0
3C01C0
1F0780
07FF00
01FC00
ENDCHAR
STARTCHAR 0068
ENCODING 104
SWIDTH 604 0
DWIDTH 21 0
BBX 16 26 2 0
BITMAP
C000
C000
C000
C000
C000
C000
C000
C7E0
CFF8
DC3C
F00E
E006
E007
C003
C003
C003
C003
C003
C003
C003
C003
C003
C003
C003
C003
C003
ENDCHAR
STARTCHAR 0069
ENCODING 105
SWIDTH 201 0
DWIDTH 7 0
BBX 2 26 2 0
BITMAP
C0
C0
C0
C0
00
00
00
C0
C0
C0
C0
C0
C0
C0
C0
C0
C0
C0
C0
C0
C0
C0
C0
C0
C0
C0
ENDCHAR
STARTCHAR 006A
ENCODING 106
SWIDTH 201 0
DWIDTH 7 0
BBX 6 33 -2 -7
BITMAP
0C
0C
0C
0C
00
00
00
0C
0C
0C
0C
0C
0C
0C
0C
0C
0C
0C
0C
0C
0C
0C
0C
0C
0C
0C
0C
0C
0C
1C
78
F0
E0
ENDCHAR
STARTCHAR 006B
ENCODING 107
SWIDTH 489 0
DWIDTH 17 0
BBX 14 26 3 0
BITMAP
C000
C000
C000
C000
C000
C000
C000
C01C
C038
C070
C0E0
C1E0
C1C0
C380
C700
CE00
CE00
DE00
FF00
F380
E1C0
E0E0
C0F0
C070
C038
C01C
ENDCHAR
STARTCHAR 006C
ENCODING 108
SWIDTH 201 0
DWIDTH 7 0
BBX 2 26 2 0
BITMAP
C0
C0
C0
C0
C0
C0
C0
C0
C0
C0
C0
C0
C0
C0
C0
C0
C0
C0
C0
C0
C0
C0
C0
C0
C0
C0
ENDCHAR
STARTCHAR 006D
ENCODING 109
SWIDTH 950 0
DWIDTH 33 0
BBX 28 19 2 0
BITMAP
C7C03E00
DFF0FF80
FC79E3C0
F01F80E0
E00F0060
E0070070
C0060030
C0060030
C0060030
C0060030
C0060030
C0060030
C0060030
C0060030
C0060030
C0060030
C0060030
C0060030
C0060030
ENDCHAR
STARTCHAR 006E
ENCODING 110
SWIDTH 604 0
DWIDTH 21 0
BBX 17 19 2 0
BITMAP
C3F000
CFFC00
DC3E00
F00700
E00300
E00380
C00180
C00180
C00180
C00180
C00180
C00180
C00180
C00180
C00180
C00180
C00180
C00180
C00180
ENDCHAR
STARTCHAR 006F
ENCODING 111
SWIDTH 662 0
DWIDTH 23 0
BBX 19 19 2 0
BITMAP
01F800
0FFE00
1F1F00
380380
7001C0
6000C0
E000E0
C00060
C00060
C00060
C00060
C00060
E000E0
6000C0
7001C0
380380
1E1F00
0FFC00
03F000
ENDCHAR
STARTCHAR 0070
ENCODING 112
SWIDTH 691 0
DWIDTH 24 0
BBX 20 26 2 -7
BITMAP
C1F800
C7FF00
DF0F80
F801C0
F000E0
E00060
E00070
C00030
C00030
C00030
C00030
C00030
E00070
E00060
F000E0
FC01C0
DF0F80
CFFE00
C1F800
C00000
C00000
C00000
C00000
C00000
C00000
C00000
ENDCHAR
STARTCHAR 0071
ENCODING 113
SWIDTH 691 0
DWIDTH 24 0
BBX 20 26 1 -7
BITMAP
01FC30
07FF30
1F0FB0
3801F0
3000F0
600070
600070
C00030
C00030
C00030
C00030
C00030
E00070
600070
7000F0
3C01F0
1F0FB0
07FF30
01F830
000030
000030
000030
000030
000030
000030
000030
ENDCHAR
STARTCHAR 0072
ENCODING 114
SWIDTH 288 0
DWIDTH 10 0
BBX 8 19 2 0
BITMAP
C7
DF
DF
F0
E0
E0
C0
C0
C0
C0
C0
C0
C0
C0
C0
C0
C0
C0
C0
ENDCHAR
STARTCHAR 0073
ENCODING 115
SWIDTH 374 0
DWIDTH 13 0
BBX 11 19 1 0
BITMAP
1F00
3FC0
71C0
E0E0
C060
C000
E000
7800
3F00
1F80
03C0
00E0
0060
C060
C060
E060
71C0
3FC0
1F00
ENDCHAR
STARTCHAR 0074
ENCODING 116
SWIDTH 345 0
DWIDTH 12 0
BBX 11 26 1 0
BITMAP
0C00
0C00
0C00
0C00
0C00
0C00
0C00
FFE0
FFE0
0C00
0C00
0C00
0C00
0C00
0C00
0C00
0C00
0C00
0C00
0C00
0C00
0C00
0C00
0C00
0C00
0C00
ENDCHAR
STARTCHAR 0075
ENCODING 117
SWIDTH 604 0
DWIDTH 21 0
BBX 16 19 2 0
BITMAP
C003
C003
C003
C003
C003
C003
C003
C003
C003
C003
C003
C003
C003
E007
6007
700F
3C3B
1FF3
07E3
ENDCHAR
STARTCHAR 0076
ENCODING 118
SWIDTH 547 0
DWIDTH 19 0
BBX 19 19 0 0
BITMAP
E000E0
7000C0
7001C0
3001C0
380380
180380
1C0300
1C0700
0C0600
0E0E00
060E00
071C00
031C00
039800
03B800
01B000
01F000
00F000
00E000
ENDCHAR
STARTCHAR 0077
ENCODING 119
SWIDTH 835 0
DWIDTH 29 0
BBX 28 19 0 0
BITMAP
E0000070
60000060
60060060
700F00E0
300F00C0
380F01C0
380F01C0
181B8180
1C198380
0C198300
0C39C300
0E30C700
0630C600
0770EE00
07606C00
03606C00
03E07C00
01C03800
01C03800
ENDCHAR
STARTCHAR 0078
ENCODING 120
SWIDTH 489 0
DWIDTH 17 0
BBX 16 19 0 0
BITMAP
E007
700E
381C
381C
1C38
0E70
0660
07E0
03C0
03C0
03C0
07E0
0E70
0E70
1C38
381C
381C
700E
E007
ENDCHAR
STARTCHAR 0079
ENCODING 121
SWIDTH 547 0
DWIDTH 19 0
BBX 18 26 1 -7
BITMAP
E001C0
600180
700380
700300
300700
380700
180600
1C0E00
1C0C00
0C1C00
0E1800
063800
073800
073000
037000
03E000
01E000
01C000
01C000
01C000
018000
038000
030000
070000
060000
0E0000
ENDCHAR
STARTCHAR 007A
ENCODING 122
SWIDTH 432 0
DWIDTH 15 0
BBX 14 19 0 0
BITMAP
FFF8
FFF8
0038
0030
0070
00E0
01C0
01C0
0380
0700
0600
0E00
1C00
3800
3800
7000
E000
FFFC
FFFC
ENDCHAR
STARTCHAR 007B
ENCODING 123
SWIDTH 345 0
DWIDTH 12 0
BBX 8 32 3 -7
BITMAP
07
0F
1C
18
18
18
18
18
18
18
18
18
18
38
70
E0
E0
70
38
18
18
18
18
18
18
18
18
18
18
1C
1F
0F
ENDCHAR
STARTCHAR 007C
ENCODING 124
SWIDTH 662 0
DWIDTH 23 0
BBX 2 35 10 -8
BITMAP
C0
C0
C0
C0
C0
C0
C0
C0
C0
C0
C0
C0
C0
C0
C0
C0
C0
C0
C0
C0
C0
C0
C0
C0
C0
C0
C0
C0
C0
C0
C0
C0
C0
C0
C0
ENDCHAR
STARTCHAR 007D
ENCODING 125
SWIDTH 345 0
DWIDTH 12 0
BBX 8 32 1 -7
BITMAP
F0
F0
38
18
18
18
18
18
18
18
18
18
18
1C
0E
07
07
0E
1C
18
18
18
18
18
18
18
18
18
18
38
F0
F0
ENDCHAR
STARTCHAR 007E
ENCODING 126
SWIDTH 604 0
DWIDTH 21 0
BBX 16 5 3 6
BITMAP
3E00
7F83
E3E7
C0FE
0038
ENDCHAR
STARTCHAR 00A0
ENCODING 160
SWIDTH 288 0
DWIDTH 10 0
BBX 0 0 0 0
BITMAP
ENDCHAR
STARTCHAR 00A3
ENCODING 163
SWIDTH 547 0
DWIDTH 19 0
BBX 19 26 0 0
BITMAP
03F000
0FFC00
1E1F00
380700
300380
300180
6001C0
600000
600000
600000
700000
300000
FFFE00
FFFE00
0E0000
070000
030000
038060
018060
018060
018060
0180C0
0381C0
030780
7FFF00
7FFC00
ENDCHAR
STARTCHAR 00A4
ENCODING 164
SWIDTH 547 0
DWIDTH 19 0
BBX 19 19 0 2
BITMAP
400040
E000E0
71F9C0
3FFF80
1E0F00
1C0700
180380
380180
300180
300180
300180
380180
180300
1C0700
1F1F00
3FFF80
71F1C0
E000E0
400040
ENDCHAR
STARTCHAR 00A6
ENCODING 166
SWIDTH 662 0
DWIDTH 23 0
BBX 2 30 10 -5
BITMAP
C0
C0
C0
C0
C0
C0
C0
C0
C0
C0
C0
C0
00
00
00
00
00
00
C0
C0
C0
C0
C0
C0
C0
C0
C0
C0
C0
C0
ENDCHAR
STARTCHAR 00A7
ENCODING 167
SWIDTH 604 0
DWIDTH 21 0
BBX 14 31 3 -5
BITMAP
07C0
0FF0
1E78
3838
3018
3000
3000
3800
1C00
1E00
3F80
63E0
C0F0
C038
C01C
E00C
700C
7C0C
1F0C
07D8
03F0
00F0
0038
0018
6018
6018
7018
3038
3C70
1FE0
07C0
ENDCHAR
STARTCHAR 00A8
ENCODING 168
SWIDTH 374 0
DWIDTH 13 0
BBX 7 4 3 22
BITMAP
C6
C6
C6
C6
ENDCHAR
STARTCHAR 00A9
ENCODING 169
SWIDTH 748 0
DWIDTH 26 0
BBX 26 26 0 0
BITMAP
003F8000
01FFE000
07807800
0E001C00
1C000E00
383F0700
307FC300
60E0E180
61C06180
E18031C0
C30000C0
C30000C0
C30000C0
C30000C0
C30000C0
C30000C0
E38030C0
61C06180
60F1E180
307FC300
381F0700
1C000E00
0E001C00
07807800
01FFE000
007F8000
ENDCHAR
STARTCHAR 00AB
ENCODING 171
SWIDTH 432 0
DWIDTH 15 0
BBX 12 14 1 3
BITMAP
0820
1C70
1860
38E0
71C0
71C0
E380
E380
71C0
71C0
38E0
3860
1C70
0820
ENDCHAR
STARTCHAR 00AC
ENCODING 172
SWIDTH 604 0
DWIDTH 21 0
BBX 17 9 2 4
BITMAP
FFFF80
FFFF80
000180
000180
000180
000180
000180
000180
000180
ENDCHAR
STARTCHAR 00AD
ENCODING 173
SWIDTH 345 0
DWIDTH 12 0
BBX 9 2 1 8
BITMAP
FF80
FF80
ENDCHAR
STARTCHAR 00AE
ENCODING 174
SWIDTH 748 0
DWIDTH 26 0
BBX 26 26 0 0
BITMAP
007F8000
01FFE000
07807800
0E001C00
1C000E00
39FF8700
31FFC380
6180E180
618061C0
C18060C0
C18060C0
C180E0C0
C1FFC0C0
C1FFC0C0
C181E0C0
C18060C0
E18061C0
61806180
71806180
31806300
39806700
1C000E00
0E001C00
07807800
01FFE000
007F0000
ENDCHAR
STARTCHAR 00B0
ENCODING 176
SWIDTH 403 0
DWIDTH 14 0
BBX 10 10 2 14
BITMAP
1E00
7F80
6380
C0C0
C0C0
C0C0
C0C0
6180
7F80
1E00
ENDCHAR
STARTCHAR 00B1
ENCODING 177
SWIDTH 604 0
DWIDTH 21 0
BBX 18 19 1 0
BITMAP
00C000
00C000
00C000
00C000
00C000
00C000
FFFFC0
FFFFC0
00C000
00C000
00C000
00C000
00C000
00C000
00C000
000000
000000
FFFFC0
FFFFC0
ENDCHAR
STARTCHAR 00B4
ENCODING 180
SWIDTH 374 0
DWIDTH 13 0
BBX 8 6 3 22
BITMAP
02
07
1F
7C
F0
40
ENDCHAR
STARTCHAR 00B5
ENCODING 181
SWIDTH 604 0
DWIDTH 21 0
BBX 15 25 3 -6
BITMAP
C006
C006
C006
C006
C006
C006
C006
C006
C006
C006
C006
C006
C006
E00E
E00E
F01E
FC7E
DFF6
C7C6
C000
C000
C000
C000
C000
C000
ENDCHAR
STARTCHAR 00B6
ENCODING 182
SWIDTH 576 0
DWIDTH 20 0
BBX 18 30 1 -4
BITMAP
07FFC0
1FFFC0
3FC300
7FC300
7FC300
FFC300
FFC300
FFC300
FFC300
7FC300
7FC300
3FC300
1FC300
03C300
00C300
00C300
00C300
00C300
00C300
00C300
00C300
00C300
00C300
00C300
00C300
00C300
00C300
00C300
00C300
00C300
ENDCHAR
STARTCHAR 00B7
ENCODING 183
SWIDTH 288 0
DWIDTH 10 0
BBX 2 4 4 7
BITMAP
C0
C0
C0
C0
ENDCHAR
STARTCHAR 00B8
ENCODING 184
SWIDTH 316 0
DWIDTH 11 0
BBX 6 8 2 -8
BITMAP
30
20
78
04
04
C4
6C
38
ENDCHAR
STARTCHAR 00BB
ENCODING 187
SWIDTH 432 0
DWIDTH 15 0
BBX 12 14 1 3
BITMAP
4100
E380
6180
71C0
38E0
38E0
1C70
1C70
38E0
38E0
71C0
6180
E380
4100
ENDCHAR
STARTCHAR 00C1
ENCODING 193
SWIDTH 748 0
DWIDTH 26 0
BBX 25 33 0 1
BITMAP
00030000
000F8000
001E0000
007C0000
00700000
00000000
00000000
001C0000
003E0000
003E0000
00360000
00770000
00630000
00E38000
00E38000
01C1C000
01C1C000
0180C000
0380E000
0300E000
07007000
07007000
0FFFF800
0FFFF800
0C001800
1C001C00
18001C00
38000E00
38000E00
70000700
70000700
60000300
E0000380
ENDCHAR
STARTCHAR 00C2
ENCODING 194
SWIDTH 748 0
DWIDTH 26 0
BBX 25 32 0 0
BITMAP
001C0000
007F0000
00E38000
01C1C000
00000000
00000000
001C0000
003E0000
003E0000
00360000
00770000
00630000
00E38000
00E38000
01C1C000
01C1C000
0180C000
0380E000
0300E000
07007000
07007000
0FFFF800
0FFFF800
0C001800
1C001C00
18001C00
38000E00
38000E00
70000700
70000700
60000300
E0000380
ENDCHAR
STARTCHAR 00C4
ENCODING 196
SWIDTH 748 0
DWIDTH 26 0
BBX 24 32 1 0
BITMAP
00C600
00C600
00C600
00C600
000000
000000
003800
007C00
007C00
006E00
00EE00
00E600
01C700
01C700
018380
038380
038380
0701C0
0701C0
0600E0
0E00E0
0FFFE0
1FFFF0
1C0070
380038
380038
30001C
70001C
70001C
E0000E
E0000E
C00007
ENDCHAR
STARTCHAR 00C7
ENCODING 199
SWIDTH 806 0
DWIDTH 28 0
BBX 24 34 2 -8
BITMAP
007F00
01FFE0
07E3F0
0F0078
1C001C
38000E
300007
700000
600000
E00000
C00000
C00000
C00000
C00000
C00000
C00000
E00000
600000
700000
700007
38000E
1C001C
0F0078
07E1F0
01FFE0
007F00
001000
001000
003C00
000200
000200
002200
003600
001C00
ENDCHAR
STARTCHAR 00C9
ENCODING 201
SWIDTH 547 0
DWIDTH 19 0
BBX 13 33 3 1
BITMAP
00C0
03C0
0F80
1E00
1C00
0000
0000
FFF8
FFF8
C000
C000
C000
C000
C000
C000
C000
C000
C000
C000
FFF8
FFF8
C000
C000
C000
C000
C000
C000
C000
C000
C000
C000
FFF8
FFF8
ENDCHAR
STARTCHAR 00CB
ENCODING 203
SWIDTH 547 0
DWIDTH 19 0
BBX 13 32 3 0
BITMAP
18C0
18C0
18C0
18C0
0000
0000
FFF8
FFF8
C000
C000
C000
C000
C000
C000
C000
C000
C000
C000
FFF8
FFF8
C000
C000
C000
C000
C000
C000
C000
C000
C000
C000
FFF8
FFF8
ENDCHAR
STARTCHAR 00CD
ENCODING 205
SWIDTH 230 0
DWIDTH 8 0
BBX 7 33 2 1
BITMAP
06
1E
7C
F0
E0
00
00
60
60
60
60
60
60
60
60
60
60
60
60
60
60
60
60
60
60
60
60
60
60
60
60
60
60
ENDCHAR
STARTCHAR 00CE
ENCODING 206
SWIDTH 230 0
DWIDTH 8 0
BBX 10 32 -1 0
BITMAP
1E00
3F00
7380
E1C0
0000
0000
0C00
0C00
0C00
0C00
0C00
0C00
0C00
0C00
0C00
0C00
0C00
0C00
0C00
0C00
0C00
0C00
0C00
0C00
0C00
0C00
0C00
0C00
0C00
0C00
0C00
0C00
ENDCHAR
STARTCHAR 00D3
ENCODING 211
SWIDTH 864 0
DWIDTH 30 0
BBX 26 33 2 0
BITMAP
00004000
0001C000
0007C000
001F0000
001E0000
00180000
00000000
003F8000
01FFE000
07E1F800
0F003C00
1C000E00
38000700
30000300
70000380
60000180
E00001C0
C00000C0
C00000C0
C00000C0
C00000C0
C00000C0
C00000C0
E00001C0
60000180
70000380
30000300
38000700
1C000E00
0F003C00
07E1F800
01FFE000
007F0000
ENDCHAR
STARTCHAR 00D4
ENCODING 212
SWIDTH 864 0
DWIDTH 30 0
BBX 26 32 2 0
BITMAP
001E0000
003F0000
00738000
01E1E000
00000000
00000000
003F8000
01FFE000
07E1F800
0F003C00
1C000E00
38000700
30000300
70000380
60000180
E00001C0
C00000C0
C00000C0
C00000C0
C00000C0
C00000C0
C00000C0
E00001C0
60000180
70000380
30000300
38000700
1C000E00
0F003C00
07E1F800
01FFE000
007F0000
ENDCHAR
STARTCHAR 00D5
ENCODING 213
SWIDTH 864 0
DWIDTH 30 0
BBX 26 31 2 1
BITMAP
00FC4000
01FFE000
0087C000
00000000
00000000
003F8000
01FFE000
07E1F800
0F003C00
1C000E00
38000700
30000300
70000380
60000180
E00001C0
C00000C0
C00000C0
C00000C0
C00000C0
C00000C0
C00000C0
E00001C0
60000180
70000380
30000300
38000700
1C000E00
0F003C00
07E1F800
01FFE000
007F0000
ENDCHAR
STARTCHAR 00D6
ENCODING 214
SWIDTH 864 0
DWIDTH 30 0
BBX 26 32 2 0
BITMAP
00630000
00630000
00630000
00630000
00000000
00000000
007F0000
01FFE000
07E3F800
0F003C00
1C001E00
38000700
30000300
70000380
60000180
E00001C0
C00000C0
C00000C0
C00000C0
C00000C0
C00000C0
C00000C0
E00001C0
60000180
70000380
30000300
38000700
1C000E00
0F003C00
07E1F800
01FFE000
007F0000
ENDCHAR
STARTCHAR 00D7
ENCODING 215
SWIDTH 604 0
DWIDTH 21 0
BBX 16 16 3 1
BITMAP
4002
E007
700E
381C
1C38
0E70
07E0
03C0
03C0
07E0
0E70
1C38
381C
700E
E007
4002
ENDCHAR
STARTCHAR 00DA
ENCODING 218
SWIDTH 662 0
DWIDTH 23 0
BBX 17 33 3 1
BITMAP
001800
007800
01F000
07C000
030000
000000
000000
C00180
C00180
C00180
C00180
C00180
C00180
C00180
C00180
C00180
C00180
C00180
C00180
C00180
C00180
C00180
C00180
C00180
C00180
C00180
E00380
600300
700700
780E00
3E7E00
1FF800
07E000
ENDCHAR
STARTCHAR 00DC
ENCODING 220
SWIDTH 662 0
DWIDTH 23 0
BBX 17 32 3 0
BITMAP
063000
063000
063000
063000
000000
000000
C00180
C00180
C00180
C00180
C00180
C00180
C00180
C00180
C00180
C00180
C00180
C00180
C00180
C00180
C00180
C00180
C00180
C00180
C00180
E00380
600300
700700
780E00
3E7E00
1FF800
07E000
ENDCHAR
STARTCHAR 00DD
ENCODING 221
SWIDTH 604 0
DWIDTH 21 0
BBX 20 33 0 1
BITMAP
000C00
001E00
007C00
01F000
00C000
000000
000000
E00070
700060
7000E0
3800C0
3801C0
1C0180
1C0380
0E0300
0E0700
070600
070E00
038C00
039C00
01D800
00F800
00F000
007000
006000
006000
006000
006000
006000
006000
006000
006000
006000
ENDCHAR
STARTCHAR 00DF
ENCODING 223
SWIDTH 547 0
DWIDTH 19 0
BBX 16 26 2 0
BITMAP
07C0
1FF0
3878
7018
601C
E00C
C00C
C00C
C00C
C01C
C018
C078
C3E0
C3F8
C03C
C00E
C007
C003
C003
F003
F003
F807
FC0E
DE1C
CFF8
C3F0
ENDCHAR
STARTCHAR 00E1
ENCODING 225
SWIDTH 691 0
DWIDTH 24 0
BBX 19 27 2 0
BITMAP
000800
001C00
007C00
01F000
03C000
010000
000000
000000
01F860
0FFE60
1E0F60
3803E0
7001E0
6000E0
E000E0
C00060
C00060
C00060
C00060
C00060
E000E0
6000E0
7001E0
3803E0
1F0F60
0FFE60
03F860
ENDCHAR
STARTCHAR 00E2
ENCODING 226
SWIDTH 691 0
DWIDTH 24 0
BBX 19 26 2 0
BITMAP
00F000
01F800
039C00
0F0E00
000000
000000
000000
01F860
0FFE60
1E0F60
3803E0
7001E0
6000E0
E000E0
C00060
C00060
C00060
C00060
C00060
E000E0
6000E0
7001E0
3803E0
1F0F60
0FFE60
03F860
ENDCHAR
STARTCHAR 00E4
ENCODING 228
SWIDTH 691 0
DWIDTH 24 0
BBX 19 26 2 0
BITMAP
031800
031800
031800
031800
000000
000000
000000
03F860
0FFE60
1E1F60
3803E0
7001E0
6000E0
E000E0
C00060
C00060
C00060
C00060
C00060
E000E0
6000E0
7001E0
3803E0
1E0F60
0FFE60
03F060
ENDCHAR
STARTCHAR 00E7
ENCODING 231
SWIDTH 633 0
DWIDTH 22 0
BBX 19 27 1 -8
BITMAP
01FC00
07FF00
1F0F80
3C01C0
3000E0
6000E0
600000
C00000
C00000
C00000
C00000
C00000
E00000
600060
7000E0
3C01C0
1F0780
0FFF00
01FC00
004000
00C000
00F000
000800
000800
018800
00D800
00F000
ENDCHAR
STARTCHAR 00E9
ENCODING 233
SWIDTH 662 0
DWIDTH 23 0
BBX 19 27 1 0
BITMAP
000800
003800
00F800
01E000
03C000
010000
000000
000000
03F800
0FFE00
1E1F00
380380
7001C0
6000C0
E000E0
C00060
FFFFE0
FFFFE0
C00000
C00000
6000E0
6000C0
7001C0
380380
1E0F00
0FFE00
03F000
ENDCHAR
STARTCHAR 00EB
ENCODING 235
SWIDTH 662 0
DWIDTH 23 0
BBX 20 26 1 0
BITMAP
018C00
018C00
018C00
018C00
000000
000000
000000
01F800
07FF00
1F0F80
3801C0
3000E0
600060
600070
C00070
FFFFF0
FFFFF0
C00000
C00000
600060
6000E0
3000C0
3C01C0
1F0F80
07FE00
01F800
ENDCHAR
STARTCHAR 00ED
ENCODING 237
SWIDTH 201 0
DWIDTH 7 0
BBX 7 27 1 1
BITMAP
06
1E
3C
F0
E0
00
00
00
60
60
60
60
60
60
60
60
60
60
60
60
60
60
60
60
60
60
60
ENDCHAR
STARTCHAR 00EE
ENCODING 238
SWIDTH 201 0
DWIDTH 7 0
BBX 10 26 -2 0
BITMAP
1E00
3F00
7380
E1C0
0000
0000
0000
0C00
0C00
0C00
0C00
0C00
0C00
0C00
0C00
0C00
0C00
0C00
0C00
0C00
0C00
0C00
0C00
0C00
0C00
0C00
ENDCHAR
STARTCHAR 00F3
ENCODING 243
SWIDTH 662 0
DWIDTH 23 0
BBX 19 27 2 0
BITMAP
000400
001C00
007C00
00F000
01E000
008000
000000
000000
01F800
0FFE00
1F1F00
380380
7001C0
6000C0
E000E0
C00060
C00060
C00060
C00060
C00060
E000E0
6000C0
7001C0
380380
1E1F00
0FFC00
03F000
ENDCHAR
STARTCHAR 00F4
ENCODING 244
SWIDTH 662 0
DWIDTH 23 0
BBX 19 26 2 0
BITMAP
00E000
03F000
071C00
0E0E00
000000
000000
000000
01F800
0FFE00
1F1F00
380380
7001C0
6000C0
E000E0
C00060
C00060
C00060
C00060
C00060
E000E0
6000C0
7001C0
380380
1E1F00
0FFC00
03F000
ENDCHAR
STARTCHAR 00F5
ENCODING 245
SWIDTH 662 0
DWIDTH 23 0
BBX 19 26 2 0
BITMAP
07C400
0FFE00
0C7E00
000000
000000
000000
000000
01F800
0FFE00
1F1F00
380380
7001C0
6000C0
E000E0
C00060
C00060
C00060
C00060
C00060
E000E0
6000C0
7001C0
380380
1E1F00
0FFC00
03F000
ENDCHAR
STARTCHAR 00F6
ENCODING 246
SWIDTH 662 0
DWIDTH 23 0
BBX 19 26 2 0
BITMAP
031800
031800
031800
031800
000000
000000
000000
01F800
0FFE00
1F1F00
380380
7001C0
6000C0
E000E0
C00060
C00060
C00060
C00060
C00060
E000E0
6000C0
7001C0
380380
1F1F00
0FFE00
03F000
ENDCHAR
STARTCHAR 00F7
ENCODING 247
SWIDTH 604 0
DWIDTH 21 0
BBX 17 18 2 0
BITMAP
018000
018000
018000
018000
000000
000000
000000
000000
FFFF80
FFFF80
000000
000000
000000
000000
018000
018000
018000
018000
ENDCHAR
STARTCHAR 00FA
ENCODING 250
SWIDTH 604 0
DWIDTH 21 0
BBX 16 27 2 1
BITMAP
0010
0078
01F0
07C0
0300
0000
0000
0000
C003
C003
C003
C003
C003
C003
C003
C003
C003
C003
C003
C003
C003
E007
6007
700F
3C3B
1FF3
07E3
ENDCHAR
STARTCHAR 00FC
ENCODING 252
SWIDTH 604 0
DWIDTH 21 0
BBX 16 26 2 0
BITMAP
0630
0630
0630
0630
0000
0000
0000
C003
C003
C003
C003
C003
C003
C003
C003
C003
C003
C003
C003
C003
E007
6007
700F
3C3B
1FFB
07E3
ENDCHAR
STARTCHAR 00FD
ENCODING 253
SWIDTH 547 0
DWIDTH 19 0
BBX 18 34 1 -6
BITMAP
001800
003C00
00F800
03E000
038000
000000
000000
000000
E001C0
600180
700380
700300
300700
380700
180600
1C0E00
1C0C00
0C1C00
0E1800
063800
073800
073000
037000
03E000
01E000
01C000
01C000
01C000
018000
038000
030000
070000
060000
0E0000
ENDCHAR
STARTCHAR 0100
ENCODING 256
SWIDTH 748 0
DWIDTH 26 0
BBX 25 31 0 0
BITMAP
01FFC000
01FFC000
00000000
00000000
00000000
001C0000
003E0000
003E0000
00360000
00770000
00630000
00E38000
00E38000
01C1C000
01C1C000
0180C000
0380E000
0300E000
07007000
07007000
0FFFF800
0FFFF800
0C001800
1C001C00
18001C00
38000E00
38000E00
70000700
70000700
60000300
E0000380
ENDCHAR
STARTCHAR 0101
ENCODING 257
SWIDTH 691 0
DWIDTH 24 0
BBX 19 25 2 1
BITMAP
0FFF00
0FFF00
000000
000000
000000
000000
01F860
0FFE60
1E0F60
3803E0
7001E0
6000E0
E000E0
C00060
C00060
C00060
C00060
C00060
E000E0
6000E0
7001E0
3803E0
1F0F60
0FFE60
03F860
ENDCHAR
STARTCHAR 0102
ENCODING 258
SWIDTH 748 0
DWIDTH 26 0
BBX 25 32 0 0
BITMAP
0180C000
01E1C000
00FF8000
003E0000
00000000
00000000
001C0000
003E0000
003E0000
00360000
00770000
00630000
00E38000
00E38000
01C1C000
01C1C000
0180C000
0380E000
0300E000
07007000
07007000
0FFFF800
0FFFF800
0C001800
1C001C00
18001C00
38000E00
38000E00
70000700
70000700
60000300
E0000380
ENDCHAR
STARTCHAR 0103
ENCODING 259
SWIDTH 691 0
DWIDTH 24 0
BBX 19 26 2 0
BITMAP
0E0700
07FE00
03F800
000000
000000
000000
000000
01F860
0FFE60
1E0F60
3803E0
7001E0
6000E0
E000E0
C00060
C00060
C00060
C00060
C00060
E000E0
6000E0
7001E0
3803E0
1F0F60
0FFE60
03F860
ENDCHAR
STARTCHAR 0104
ENCODING 260
SWIDTH 748 0
DWIDTH 26 0
BBX 26 33 1 -7
BITMAP
003C0000
003C0000
003E0000
007E0000
00670000
00E70000
00E30000
00C38000
01C38000
0181C000
0381C000
0380E000
0700E000
0700E000
06007000
0FFFF000
0FFFF800
1C003800
1C001C00
38001C00
38000C00
30000E00
70000E00
60000700
E0000700
E0000380
00000200
00000400
00000C00
00000C00
00000C00
000007C0
000003C0
ENDCHAR
STARTCHAR 0105
ENCODING 261
SWIDTH 691 0
DWIDTH 24 0
BBX 19 26 2 -7
BITMAP
01F860
07FE60
1F0F60
3803E0
7001E0
6000E0
E000E0
C00060
C00060
C00060
C00060
C00060
E000E0
6000E0
7001E0
3803E0
1F0F60
0FFE60
01F860
0000C0
000080
000180
000180
000180
0001E0
0000E0
ENDCHAR
STARTCHAR 0106
ENCODING 262
SWIDTH 806 0
DWIDTH 28 0
BBX 24 32 2 1
BITMAP
0001C0
0007C0
001F00
001C00
001000
000000
007F80
01FFE0
07E1F8
0F003C
1C001E
38000F
300007
700000
600000
E00000
C00000
C00000
C00000
C00000
C00000
C00000
E00000
600000
700000
300003
380007
1E000E
0F003C
07E1F8
01FFE0
007F00
ENDCHAR
STARTCHAR 0107
ENCODING 263
SWIDTH 633 0
DWIDTH 22 0
BBX 19 27 1 0
BITMAP
000800
003800
00F800
01E000
03C000
010000
000000
000000
01F800
07FF00
1F0F80
3803C0
3000E0
6000E0
600000
C00000
C00000
C00000
C00000
E00000
E00000
600060
7000E0
3C01C0
1F0F80
0FFE00
01F800
ENDCHAR
STARTCHAR 010C
ENCODING 268
SWIDTH 806 0
DWIDTH 28 0
BBX 24 32 2 0
BITMAP
00E0E0
0073C0
003F00
001E00
000000
000000
007F80
01FFE0
07E1F8
0F003C
1C001E
38000F
300007
700000
600000
E00000
C00000
C00000
C00000
C00000
C00000
C00000
E00000
600000
700000
300003
380007
1E000E
0F003C
07E1F8
01FFE0
007F00
ENDCHAR
STARTCHAR 010D
ENCODING 269
SWIDTH 633 0
DWIDTH 22 0
BBX 19 26 1 0
BITMAP
0E0E00
073C00
03F000
00E000
000000
000000
000000
01F800
07FF00
1F0F80
3803C0
3000E0
6000E0
600000
C00000
C00000
C00000
C00000
E00000
E00000
600060
7000E0
3C01C0
1F0F80
0FFE00
01F800
ENDCHAR
STARTCHAR 010E
ENCODING 270
SWIDTH 748 0
DWIDTH 26 0
BBX 21 32 3 0
BITMAP
383800
1E7000
07E000
038000
000000
000000
FFE000
FFFC00
C0FF00
C00780
C001C0
C000E0
C00060
C00070
C00030
C00038
C00018
C00018
C00018
C00018
C00018
C00018
C00038
C00030
C00070
C00060
C000E0
C001C0
C00780
C07F00
FFFC00
FFE000
ENDCHAR
STARTCHAR 010F
ENCODING 271
SWIDTH 748 0
DWIDTH 26 0
BBX 26 26 1 0
BITMAP
000030C0
000031C0
00003180
00003380
00003300
00003700
00003000
01F83000
07FF3000
1F0FB000
3801F000
3000F000
60007000
60007000
C0003000
C0003000
C0003000
C0003000
C0003000
E0007000
60007000
7000F000
3C01F000
1F0FB000
07FF3000
01F83000
ENDCHAR
STARTCHAR 0110
ENCODING 272
SWIDTH 777 0
DWIDTH 27 0
BBX 24 26 1 0
BITMAP
1FFC00
1FFF80
181FE0
1800F0
180038
18001C
18000C
18000E
180006
180007
180003
180003
FFF803
FFF803
180003
180003
180003
180006
180006
18000E
18001C
180038
1800F0
180FE0
1FFFC0
1FFE00
ENDCHAR
STARTCHAR 0111
ENCODING 273
SWIDTH 691 0
DWIDTH 24 0
BBX 22 26 1 0
BITMAP
000030
000030
000030
0007FC
0007FC
000030
000030
01F830
07FF30
1F0FB0
3801F0
3000F0
600070
600070
C00030
C00030
C00030
C00030
C00030
E00070
600070
7000F0
3C01F0
1F0FB0
07FF30
01F830
ENDCHAR
STARTCHAR 0112
ENCODING 274
SWIDTH 547 0
DWIDTH 19 0
BBX 13 31 3 0
BITMAP
7FF0
7FF0
0000
0000
0000
FFF8
FFF8
C000
C000
C000
C000
C000
C000
C000
C000
C000
C000
FFF8
FFF8
C000
C000
C000
C000
C000
C000
C000
C000
C000
C000
FFF8
FFF8
ENDCHAR
STARTCHAR 0113
ENCODING 275
SWIDTH 662 0
DWIDTH 23 0
BBX 19 25 1 1
BITMAP
0FFE00
0FFE00
000000
000000
000000
000000
03F800
0FFE00
1E1F00
380380
7001C0
6000C0
E000E0
C00060
FFFFE0
FFFFE0
C00000
C00000
6000E0
6000C0
7001C0
380380
1E0F00
0FFE00
03F000
ENDCHAR
STARTCHAR 0116
ENCODING 278
SWIDTH 547 0
DWIDTH 19 0
BBX 13 32 3 0
BITMAP
0600
0600
0600
0600
0000
0000
FFF8
FFF8
C000
C000
C000
C000
C000
C000
C000
C000
C000
C000
FFF8
FFF8
C000
C000
C000
C000
C000
C000
C000
C000
C000
C000
FFF8
FFF8
ENDCHAR
STARTCHAR 0117
ENCODING 279
SWIDTH 662 0
DWIDTH 23 0
BBX 20 26 1 0
BITMAP
006000
006000
006000
006000
000000
000000
000000
01F800
07FE00
1F0F80
3803C0
3001C0
6000E0
600060
C00070
FFFFF0
FFFFF0
C00000
C00000
600060
6000E0
3001C0
3C0380
1F0F00
07FE00
01F800
ENDCHAR
STARTCHAR 0118
ENCODING 280
SWIDTH 547 0
DWIDTH 19 0
BBX 14 33 3 -7
BITMAP
FFFC
FFFC
C000
C000
C000
C000
C000
C000
C000
C000
C000
C000
FFF8
FFF8
C000
C000
C000
C000
C000
C000
C000
C000
C000
C000
FFFC
FFFC
0030
0060
00C0
00C0
00C0
007C
003C
ENDCHAR
STARTCHAR 0119
ENCODING 281
SWIDTH 662 0
DWIDTH 23 0
BBX 20 26 1 -7
BITMAP
01F800
07FE00
1F0F80
3803C0
3000C0
6000E0
600070
C00070
FFFFF0
FFFFF0
C00000
C00000
600060
6000E0
3000C0
3C03C0
1F0F80
07FF00
01FC00
003000
006000
00C000
00C000
00C000
007C00
003C00
ENDCHAR
STARTCHAR 011A
ENCODING 282
SWIDTH 547 0
DWIDTH 19 0
BBX 13 32 3 0
BITMAP
7070
39C0
1F80
0F00
0000
0000
FFF8
FFF8
C000
C000
C000
C000
C000
C000
C000
C000
C000
C000
FFF8
FFF8
C000
C000
C000
C000
C000
C000
C000
C000
C000
C000
FFF8
FFF8
ENDCHAR
STARTCHAR 011B
ENCODING 283
SWIDTH 662 0
DWIDTH 23 0
BBX 19 26 1 0
BITMAP
0E0E00
073C00
03F000
01E000
000000
000000
000000
03F800
0FFE00
1E1F00
380380
7001C0
6000C0
E000E0
C00060
FFFFE0
FFFFE0
C00000
C00000
6000E0
6000C0
7001C0
380380
1E0F00
0FFE00
03F000
ENDCHAR
STARTCHAR 0122
ENCODING 290
SWIDTH 864 0
DWIDTH 30 0
BBX 27 34 1 -8
BITMAP
003F8000
01FFF000
03F1F800
0F003E00
1E000F00
18000780
38000380
70000000
60000000
60000000
E0000000
C0000000
C0000000
C0000000
C03FFFE0
E03FFFE0
600000E0
600001C0
700001C0
38000380
18000780
1E000F00
0F003E00
03F0F800
01FFF000
003F8000
00000000
00000000
000E0000
000C0000
001C0000
00180000
00380000
00300000
ENDCHAR
STARTCHAR 0123
ENCODING 291
SWIDTH 662 0
DWIDTH 23 0
BBX 20 34 1 -7
BITMAP
001800
003000
003000
007000
006000
00E000
000000
000000
01F830
07FE30
1F0FB0
3C03F0
3000F0
600070
600070
C00030
C00030
C00030
C00030
E00030
E00070
600070
7000F0
3C01F0
1F0FB0
07FE30
01F830
600070
700060
3800E0
3C01C0
1F0780
07FF00
01FC00
ENDCHAR
STARTCHAR 012A
ENCODING 298
SWIDTH 230 0
DWIDTH 8 0
BBX 10 31 -1 0
BITMAP
FFC0
FFC0
0000
0000
0000
0C00
0C00
0C00
0C00
0C00
0C00
0C00
0C00
0C00
0C00
0C00
0C00
0C00
0C00
0C00
0C00
0C00
0C00
0C00
0C00
0C00
0C00
0C00
0C00
0C00
0C00
ENDCHAR
STARTCHAR 012B
ENCODING 299
SWIDTH 201 0
DWIDTH 7 0
BBX 10 25 -2 1
BITMAP
FFC0
FFC0
0000
0000
0000
0000
0C00
0C00
0C00
0C00
0C00
0C00
0C00
0C00
0C00
0C00
0C00
0C00
0C00
0C00
0C00
0C00
0C00
0C00
0C00
ENDCHAR
STARTCHAR 012E
ENCODING 302
SWIDTH 230 0
DWIDTH 8 0
BBX 5 33 1 -7
BITMAP
30
30
30
30
30
30
30
30
30
30
30
30
30
30
30
30
30
30
30
30
30
30
30
30
30
30
60
40
C0
C0
C0
F8
78
ENDCHAR
STARTCHAR 012F
ENCODING 303
SWIDTH 201 0
DWIDTH 7 0
BBX 5 33 0 -7
BITMAP
30
30
30
30
00
00
00
30
30
30
30
30
30
30
30
30
30
30
30
30
30
30
30
30
30
30
60
60
C0
C0
C0
78
38
ENDCHAR
STARTCHAR 0136
ENCODING 310
SWIDTH 604 0
DWIDTH 21 0
BBX 17 33 3 -7
BITMAP
C00780
C00700
C00E00
C01C00
C03C00
C03800
C07000
C0E000
C1C000
C3C000
C38000
C70000
CE0000
DF0000
FF0000
FB8000
F1C000
E1E000
C0E000
C07000
C03800
C03C00
C01C00
C00E00
C00700
C00380
000000
030000
070000
060000
060000
0C0000
0C0000
ENDCHAR
STARTCHAR 0137
ENCODING 311
SWIDTH 489 0
DWIDTH 17 0
BBX 14 33 3 -7
BITMAP
C000
C000
C000
C000
C000
C000
C000
C01C
C038
C070
C0E0
C1E0
C1C0
C380
C700
CE00
CE00
DE00
FF00
F380
E1C0
E0E0
C0F0
C070
C038
C01C
0000
0600
0E00
0C00
1C00
1800
1800
ENDCHAR
STARTCHAR 0139
ENCODING 313
SWIDTH 460 0
DWIDTH 16 0
BBX 13 33 3 1
BITMAP
0300
0780
1F00
7C00
7000
0000
0000
C000
C000
C000
C000
C000
C000
C000
C000
C000
C000
C000
C000
C000
C000
C000
C000
C000
C000
C000
C000
C000
C000
C000
C000
FFF8
FFF8
ENDCHAR
STARTCHAR 013A
ENCODING 314
SWIDTH 201 0
DWIDTH 7 0
BBX 8 33 0 1
BITMAP
03
0F
3E
F8
60
00
00
30
30
30
30
30
30
30
30
30
30
30
30
30
30
30
30
30
30
30
30
30
30
30
30
30
30
ENDCHAR
STARTCHAR 013B
ENCODING 315
SWIDTH 460 0
DWIDTH 16 0
BBX 13 34 3 -8
BITMAP
C000
C000
C000
C000
C000
C000
C000
C000
C000
C000
C000
C000
C000
C000
C000
C000
C000
C000
C000
C000
C000
C000
C000
C000
FFF8
FFF8
0000
0000
0600
0C00
0C00
1C00
1800
3800
ENDCHAR
STARTCHAR 013C
ENCODING 316
SWIDTH 201 0
DWIDTH 7 0
BBX 4 34 0 -8
BITMAP
30
30
30
30
30
30
30
30
30
30
30
30
30
30
30
30
30
30
30
30
30
30
30
30
30
30
00
00
30
30
60
60
E0
C0
ENDCHAR
STARTCHAR 013D
ENCODING 317
SWIDTH 460 0
DWIDTH 16 0
BBX 13 26 3 0
BITMAP
C030
C070
C060
C0E0
C0C0
C0C0
C000
C000
C000
C000
C000
C000
C000
C000
C000
C000
C000
C000
C000
C000
C000
C000
C000
C000
FFF8
FFF8
ENDCHAR
STARTCHAR 013E
ENCODING 318
SWIDTH 259 0
DWIDTH 9 0
BBX 8 26 2 0
BITMAP
C3
C7
C6
CE
CC
DC
C0
C0
C0
C0
C0
C0
C0
C0
C0
C0
C0
C0
C0
C0
C0
C0
C0
C0
C0
C0
ENDCHAR
STARTCHAR 0141
ENCODING 321
SWIDTH 518 0
DWIDTH 18 0
BBX 16 26 2 0
BITMAP
1800
1800
1800
1800
1800
1800
1800
1800
18C0
19C0
1F80
1F00
1C00
3800
F800
F800
9800
1800
1800
1800
1800
1800
1800
1800
1FFF
1FFF
ENDCHAR
STARTCHAR 0142
ENCODING 322
SWIDTH 288 0
DWIDTH 10 0
BBX 7 26 2 0
BITMAP
30
30
30
30
30
30
30
30
32
36
3E
38
70
F0
F0
30
30
30
30
30
30
30
30
30
30
30
ENDCHAR
STARTCHAR 0143
ENCODING 323
SWIDTH 748 0
DWIDTH 26 0
BBX 20 33 3 1
BITMAP
000C00
001E00
007C00
01F000
01C000
000000
000000
E00030
F00030
F80030
F80030
DC0030
CE0030
CE0030
C70030
C38030
C38030
C1C030
C0E030
C07030
C07030
C03830
C01C30
C01C30
C00E30
C00730
C00730
C003B0
C001F0
C001F0
C000F0
C00070
C00070
ENDCHAR
STARTCHAR 0144
ENCODING 324
SWIDTH 604 0
DWIDTH 21 0
BBX 17 27 2 0
BITMAP
000800
003800
00F800
03E000
078000
020000
000000
000000
C3F000
CFFC00
DC3E00
F00700
E00300
E00380
C00180
C00180
C00180
C00180
C00180
C00180
C00180
C00180
C00180
C00180
C00180
C00180
C00180
ENDCHAR
STARTCHAR 0145
ENCODING 325
SWIDTH 748 0
DWIDTH 26 0
BBX 20 33 3 -7
BITMAP
E00030
F00030
F80030
F80030
DC0030
CE0030
CE0030
C70030
C38030
C38030
C1C030
C0E030
C07030
C07030
C03830
C01C30
C01C30
C00E30
C00730
C00730
C003B0
C001F0
C001F0
C000F0
C00070
C00070
000000
006000
00E000
00C000
00C000
018000
018000
ENDCHAR
STARTCHAR 0146
ENCODING 326
SWIDTH 604 0
DWIDTH 21 0
BBX 17 26 2 -7
BITMAP
C3F000
CFFC00
DC3E00
F00700
E00300
E00380
C00180
C00180
C00180
C00180
C00180
C00180
C00180
C00180
C00180
C00180
C00180
C00180
C00180
000000
01C000
018000
038000
030000
070000
060000
ENDCHAR
STARTCHAR 0147
ENCODING 327
SWIDTH 748 0
DWIDTH 26 0
BBX 20 32 3 0
BITMAP
0E0F00
079C00
01F800
00F000
000000
000000
E00030
F00030
F80030
F80030
DC0030
CE0030
CE0030
C70030
C38030
C38030
C1C030
C0E030
C07030
C07030
C03830
C01C30
C01C30
C00E30
C00730
C00730
C003B0
C001F0
C001F0
C000F0
C00070
C00070
ENDCHAR
STARTCHAR 0148
ENCODING 328
SWIDTH 604 0
DWIDTH 21 0
BBX 17 26 2 0
BITMAP
3C1C00
0E7800
07F000
03C000
000000
000000
000000
C3F000
CFFC00
DC3E00
F00700
E00300
E00380
C00180
C00180
C00180
C00180
C00180
C00180
C00180
C00180
C00180
C00180
C00180
C00180
C00180
ENDCHAR
STARTCHAR 014C
ENCODING 332
SWIDTH 864 0
DWIDTH 30 0
BBX 26 31 2 0
BITMAP
01FFE000
01FFE000
00000000
00000000
00000000
003F8000
01FFE000
07E1F800
0F003C00
1C000E00
38000700
30000300
70000380
60000180
E00001C0
C00000C0
C00000C0
C00000C0
C00000C0
C00000C0
C00000C0
E00001C0
60000180
70000380
30000300
38000700
1C000E00
0F003C00
07E1F800
01FFE000
007F0000
ENDCHAR
STARTCHAR 014D
ENCODING 333
SWIDTH 662 0
DWIDTH 23 0
BBX 19 25 2 1
BITMAP
0FFE00
0FFE00
000000
000000
000000
000000
01F800
0FFE00
1F1F00
380380
7001C0
6000C0
E000E0
C00060
C00060
C00060
C00060
C00060
E000E0
6000C0
7001C0
380380
1E1F00
0FFC00
03F000
ENDCHAR
STARTCHAR 0150
ENCODING 336
SWIDTH 864 0
DWIDTH 30 0
BBX 26 32 2 1
BITMAP
00071C00
000E3C00
001C7000
0038E000
0030C000
00000000
003F8000
01FFE000
07E1F800
0F003C00
1C000E00
38000700
30000300
70000380
60000180
E00001C0
C00000C0
C00000C0
C00000C0
C00000C0
C00000C0
C00000C0
E00001C0
60000180
70000380
30000300
38000700
1C000E00
0F003C00
07E1F800
01FFE000
007F0000
ENDCHAR
STARTCHAR 0151
ENCODING 337
SWIDTH 662 0
DWIDTH 23 0
BBX 19 27 2 0
BITMAP
002080
0071C0
00E380
01C700
079E00
030C00
000000
000000
01F800
0FFE00
1F1F00
380380
7001C0
6000C0
E000E0
C00060
C00060
C00060
C00060
C00060
E000E0
6000C0
7001C0
380380
1E1F00
0FFC00
03F000
ENDCHAR
STARTCHAR 0154
ENCODING 340
SWIDTH 604 0
DWIDTH 21 0
BBX 16 33 3 1
BITMAP
0060
01E0
03C0
0F80
0E00
0000
0000
FFE0
FFF8
C07C
C00E
C006
C007
C003
C003
C003
C003
C003
C007
C00E
C03C
C7FC
C3F0
C380
C1C0
C0E0
C0E0
C070
C038
C038
C01C
C00E
C006
ENDCHAR
STARTCHAR 0155
ENCODING 341
SWIDTH 288 0
DWIDTH 10 0
BBX 9 27 2 0
BITMAP
0100
0380
0F80
3E00
7800
2000
0000
0000
C700
DF00
DF00
F000
E000
E000
C000
C000
C000
C000
C000
C000
C000
C000
C000
C000
C000
C000
C000
ENDCHAR
STARTCHAR 0156
ENCODING 342
SWIDTH 604 0
DWIDTH 21 0
BBX 16 33 3 -7
BITMAP
FFE0
FFF8
C07C
C00E
C006
C007
C003
C003
C003
C003
C003
C007
C00E
C03C
C7FC
C3F0
C380
C1C0
C0E0
C0E0
C070
C038
C038
C01C
C00E
C006
0000
0380
0300
0300
0600
0600
0C00
ENDCHAR
STARTCHAR 0157
ENCODING 343
SWIDTH 288 0
DWIDTH 10 0
BBX 10 27 0 -8
BITMAP
31C0
37C0
37C0
3C00
3800
3800
3000
3000
3000
3000
3000
3000
3000
3000
3000
3000
3000
3000
3000
0000
0000
3800
3000
3000
6000
6000
E000
ENDCHAR
STARTCHAR 0158
ENCODING 344
SWIDTH 604 0
DWIDTH 21 0
BBX 16 32 3 0
BITMAP
3838
1CE0
0FC0
0380
0000
0000
FFE0
FFF8
C07C
C00E
C006
C007
C003
C003
C003
C003
C003
C007
C00E
C03C
C7FC
C3F0
C380
C1C0
C0E0
C0E0
C070
C038
C038
C01C
C00E
C006
ENDCHAR
STARTCHAR 0159
ENCODING 345
SWIDTH 288 0
DWIDTH 10 0
BBX 11 26 0 0
BITMAP
E0E0
79C0
1F80
0E00
0000
0000
0000
31C0
37C0
37C0
3C00
3800
3800
3000
3000
3000
3000
3000
3000
3000
3000
3000
3000
3000
3000
3000
ENDCHAR
STARTCHAR 015A
ENCODING 346
SWIDTH 489 0
DWIDTH 17 0
BBX 14 33 1 0
BITMAP
0020
00E0
03E0
0780
0F00
0400
0000
07C0
1FF0
3EF8
3038
701C
600C
600C
6000
6000
7000
3C00
1F00
0FE0
01F0
0078
0018
001C
000C
000C
E00C
E00C
601C
7038
3EF8
1FF0
07C0
ENDCHAR
STARTCHAR 015B
ENCODING 347
SWIDTH 374 0
DWIDTH 13 0
BBX 11 27 1 0
BITMAP
0080
0380
0780
1E00
3800
2000
0000
0000
1F00
3FC0
71C0
E0E0
C060
C000
E000
7800
3F00
1F80
03C0
00E0
0060
C060
C060
E060
71C0
3FC0
1F00
ENDCHAR
STARTCHAR 0160
ENCODING 352
SWIDTH 489 0
DWIDTH 17 0
BBX 14 32 1 0
BITMAP
3830
1CE0
0FC0
0380
0000
0000
07C0
1FF0
3EF8
3038
701C
600C
600C
6000
6000
7000
3C00
1F00
0FE0
01F0
0078
0018
001C
000C
000C
E00C
E00C
601C
7038
3EF8
1FF0
07C0
ENDCHAR
STARTCHAR 0161
ENCODING 353
SWIDTH 374 0
DWIDTH 13 0
BBX 11 26 1 0
BITMAP
E0E0
71C0
3F00
1E00
0000
0000
0000
1F00
3FC0
71C0
E0E0
C060
C000
E000
7800
3F00
1F80
03C0
00E0
0060
C060
C060
E060
71C0
3FC0
1F00
ENDCHAR
STARTCHAR 0162
ENCODING 354
SWIDTH 432 0
DWIDTH 15 0
BBX 14 34 0 -8
BITMAP
FFFC
FFFC
0300
0300
0300
0300
0300
0300
0300
0300
0300
0300
0300
0300
0300
0300
0300
0300
0300
0300
0300
0300
0300
0300
0300
0300
0000
0000
0300
0300
0600
0600
0E00
0C00
ENDCHAR
STARTCHAR 0163
ENCODING 355
SWIDTH 345 0
DWIDTH 12 0
BBX 11 34 1 -8
BITMAP
0C00
0C00
0C00
0C00
0C00
0C00
0C00
FFE0
FFE0
0C00
0C00
0C00
0C00
0C00
0C00
0C00
0C00
0C00
0C00
0C00
0C00
0C00
0C00
0C00
0C00
0C00
0000
0000
0C00
0C00
1800
1800
3800
3000
ENDCHAR
STARTCHAR 0164
ENCODING 356
SWIDTH 432 0
DWIDTH 15 0
BBX 14 32 0 0
BITMAP
3870
1CE0
0FC0
0780
0000
0000
FFFC
FFFC
0300
0300
0300
0300
0300
0300
0300
0300
0300
0300
0300
0300
0300
0300
0300
0300
0300
0300
0300
0300
0300
0300
0300
0300
ENDCHAR
STARTCHAR 0165
ENCODING 357
SWIDTH 345 0
DWIDTH 12 0
BBX 13 27 1 0
BITMAP
0038
0C30
0C70
0C60
0CE0
0CC0
0C00
0C00
FFE0
FFE0
0C00
0C00
0C00
0C00
0C00
0C00
0C00
0C00
0C00
0C00
0C00
0C00
0C00
0C00
0C00
0C00
0C00
ENDCHAR
STARTCHAR 016A
ENCODING 362
SWIDTH 662 0
DWIDTH 23 0
BBX 17 31 3 0
BITMAP
3FFE00
3FFE00
000000
000000
000000
C00180
C00180
C00180
C00180
C00180
C00180
C00180
C00180
C00180
C00180
C00180
C00180
C00180
C00180
C00180
C00180
C00180
C00180
C00180
E00380
600300
700700
780E00
3E7E00
1FF800
07E000
ENDCHAR
STARTCHAR 016B
ENCODING 363
SWIDTH 604 0
DWIDTH 21 0
BBX 16 25 2 1
BITMAP
3FFC
3FFC
0000
0000
0000
0000
C003
C003
C003
C003
C003
C003
C003
C003
C003
C003
C003
C003
C003
E007
6007
700F
3C3B
1FF3
07E3
ENDCHAR
STARTCHAR 016E
ENCODING 366
SWIDTH 662 0
DWIDTH 23 0
BBX 17 33 3 1
BITMAP
01E000
03F000
063000
063000
073000
03E000
01C000
C00180
C00180
C00180
C00180
C00180
C00180
C00180
C00180
C00180
C00180
C00180
C00180
C00180
C00180
C00180
C00180
C00180
C00180
C00180
E00380
600300
700700
780E00
3E7E00
1FF800
07E000
ENDCHAR
STARTCHAR 016F
ENCODING 367
SWIDTH 604 0
DWIDTH 21 0
BBX 16 28 2 1
BITMAP
01E0
03E0
0630
0630
0630
03E0
03C0
0000
0000
C003
C003
C003
C003
C003
C003
C003
C003
C003
C003
C003
C003
C003
E007
6007
700F
3C3F
1FFB
07E3
ENDCHAR
STARTCHAR 0170
ENCODING 368
SWIDTH 662 0
DWIDTH 23 0
BBX 17 33 3 1
BITMAP
00C300
01C700
038E00
0F1C00
1C3800
082000
000000
C00180
C00180
C00180
C00180
C00180
C00180
C00180
C00180
C00180
C00180
C00180
C00180
C00180
C00180
C00180
C00180
C00180
C00180
C00180
E00380
600300
700700
780E00
3E7E00
1FF800
07E000
ENDCHAR
STARTCHAR 0171
ENCODING 369
SWIDTH 604 0
DWIDTH 21 0
BBX 16 27 2 1
BITMAP
0082
01C7
079E
0E38
1C70
0820
0000
0000
C003
C003
C003
C003
C003
C003
C003
C003
C003
C003
C003
C003
C003
E007
6007
700F
3C3B
1FF3
07E3
ENDCHAR
STARTCHAR 0172
ENCODING 370
SWIDTH 662 0
DWIDTH 23 0
BBX 17 33 3 -7
BITMAP
C00180
C00180
C00180
C00180
C00180
C00180
C00180
C00180
C00180
C00180
C00180
C00180
C00180
C00180
C00180
C00180
C00180
C00180
C00180
C00380
E00300
700700
780E00
3E7E00
1FFC00
07F000
00C000
018000
030000
030000
030000
01F000
00F000
ENDCHAR
STARTCHAR 0173
ENCODING 371
SWIDTH 604 0
DWIDTH 21 0
BBX 17 26 2 -7
BITMAP
C00300
C00300
C00300
C00300
C00300
C00300
C00300
C00300
C00300
C00300
C00300
C00300
C00300
E00700
600700
700F00
3C3B00
1FFB00
07E300
000600
000600
000C00
000C00
000C00
000F80
000780
ENDCHAR
STARTCHAR 0179
ENCODING 377
SWIDTH 489 0
DWIDTH 17 0
BBX 16 33 0 1
BITMAP
0030
00F0
03E0
0F80
0600
0000
0000
FFFF
FFFF
0007
000E
001E
001C
0038
0038
0070
00F0
00E0
01C0
01C0
0380
0380
0700
0E00
0E00
1C00
1800
3800
7000
7000
E000
FFFF
FFFF
ENDCHAR
STARTCHAR 017A
ENCODING 378
SWIDTH 432 0
DWIDTH 15 0
BBX 14 27 0 1
BITMAP
0060
01E0
07C0
1F00
0C00
0000
0000
0000
FFF8
FFF8
0038
0030
0070
00E0
01C0
01C0
0380
0700
0600
0E00
1C00
3800
3800
7000
E000
FFFC
FFFC
ENDCHAR
STARTCHAR 017B
ENCODING 379
SWIDTH 489 0
DWIDTH 17 0
BBX 16 32 0 0
BITMAP
0180
0180
0180
0180
0000
0000
7FFE
7FFE
000E
000E
001C
001C
0038
0038
0070
00E0
00E0
01C0
01C0
0380
0380
0700
0E00
0E00
1C00
1C00
3800
3800
7000
E000
FFFF
FFFF
ENDCHAR
STARTCHAR 017C
ENCODING 380
SWIDTH 432 0
DWIDTH 15 0
BBX 14 26 0 0
BITMAP
0300
0300
0300
0300
0000
0000
0000
7FF8
7FF8
0038
0070
0070
00E0
01C0
01C0
0380
0700
0700
0E00
1C00
1C00
3800
7000
6000
FFFC
FFFC
ENDCHAR
STARTCHAR 017D
ENCODING 381
SWIDTH 489 0
DWIDTH 17 0
BBX 16 32 0 0
BITMAP
3838
1E70
07E0
03C0
0000
0000
FFFF
FFFF
0007
000E
001E
001C
0038
0038
0070
00F0
00E0
01C0
01C0
0380
0780
0700
0E00
0E00
1C00
3800
3800
7000
7000
E000
FFFF
FFFF
ENDCHAR
STARTCHAR 017E
ENCODING 382
SWIDTH 432 0
DWIDTH 15 0
BBX 14 26 0 0
BITMAP
7870
1CE0
0FC0
0780
0000
0000
0000
FFF8
FFF8
0038
0030
0070
00E0
01C0
01C0
0380
0700
0600
0E00
1C00
3800
3800
7000
E000
FFFC
FFFC
ENDCHAR
STARTCHAR 0218
ENCODING 536
SWIDTH 489 0
DWIDTH 17 0
BBX 14 34 1 -8
BITMAP
07C0
1FF0
3EF8
3038
701C
600C
600C
6000
6000
7000
3C00
1F00
0FE0
01F0
0078
0018
001C
000C
000C
E00C
E00C
601C
7038
3EF8
1FF0
07C0
0000
0000
0180
0300
0300
0600
0600
0E00
ENDCHAR
STARTCHAR 0219
ENCODING 537
SWIDTH 374 0
DWIDTH 13 0
BBX 11 27 1 -8
BITMAP
1F00
3FC0
71C0
E0E0
C060
C000
E000
7800
3F00
1F80
03C0
00E0
0060
C060
C060
E060
71C0
3FC0
1F00
0000
0000
0E00
0E00
0C00
1C00
1800
3000
ENDCHAR
STARTCHAR 021A
ENCODING 538
SWIDTH 432 0
DWIDTH 15 0
BBX 14 34 0 -8
BITMAP
FFFC
FFFC
0300
0300
0300
0300
0300
0300
0300
0300
0300
0300
0300
0300
0300
0300
0300
0300
0300
0300
0300
0300
0300
0300
0300
0300
0000
0000
0300
0300
0600
0600
0E00
0C00
ENDCHAR
STARTCHAR 021B
ENCODING 539
SWIDTH 345 0
DWIDTH 12 0
BBX 11 34 1 -8
BITMAP
0C00
0C00
0C00
0C00
0C00
0C00
0C00
FFE0
FFE0
0C00
0C00
0C00
0C00
0C00
0C00
0C00
0C00
0C00
0C00
0C00
0C00
0C00
0C00
0C00
0C00
0C00
0000
0000
0C00
0C00
1800
1800
3800
3000
ENDCHAR
STARTCHAR 02C7
ENCODING 711
SWIDTH 489 0
DWIDTH 17 0
BBX 10 4 3 22
BITMAP
E1C0
7380
3F00
1E00
ENDCHAR
STARTCHAR 02D8
ENCODING 728
SWIDTH 460 0
DWIDTH 16 0
BBX 12 3 2 22
BITMAP
E070
7FE0
3F80
ENDCHAR
STARTCHAR 02D9
ENCODING 729
SWIDTH 230 0
DWIDTH 8 0
BBX 2 4 3 22
BITMAP
C0
C0
C0
C0
ENDCHAR
STARTCHAR 02DB
ENCODING 731
SWIDTH 288 0
DWIDTH 10 0
BBX 6 7 2 -6
BITMAP
30
60
C0
C0
C0
7C
3C
ENDCHAR
STARTCHAR 02DD
ENCODING 733
SWIDTH 547 0
DWIDTH 19 0
BBX 13 6 4 22
BITMAP
0410
1E78
38F0
71C0
E380
4100
ENDCHAR
STARTCHAR 0394
ENCODING 916
SWIDTH 604 0
DWIDTH 21 0
BBX 21 23 0 1
BITMAP
001000
003000
003800
007800
007800
00FC00
00BC00
019E00
011E00
030E00
020F00
060700
040780
0C0780
0803C0
0803C0
1801C0
1001E0
3001E0
2000F0
6000F0
7FFFF0
FFFFF8
ENDCHAR
STARTCHAR 03BC
ENCODING 956
SWIDTH 604 0
DWIDTH 21 0
BBX 15 25 3 -6
BITMAP
C006
C006
C006
C006
C006
C006
C006
C006
C006
C006
C006
C006
C006
E00E
E00E
F01E
FC7E
DFF6
C7C6
C000
C000
C000
C000
C000
C000
ENDCHAR
STARTCHAR 2013
ENCODING 8211
SWIDTH 489 0
DWIDTH 17 0
BBX 15 2 1 8
BITMAP
FFFE
FFFE
ENDCHAR
STARTCHAR 2014
ENCODING 8212
SWIDTH 1008 0
DWIDTH 35 0
BBX 32 2 1 8
BITMAP
FFFFFFFF
FFFFFFFF
ENDCHAR
STARTCHAR 2018
ENCODING 8216
SWIDTH 345 0
DWIDTH 12 0
BBX 6 7 3 19
BITMAP
E0
60
70
30
38
18
1C
ENDCHAR
STARTCHAR 2019
ENCODING 8217
SWIDTH 345 0
DWIDTH 12 0
BBX 6 7 3 19
BITMAP
1C
18
38
30
70
70
E0
ENDCHAR
STARTCHAR 201A
ENCODING 8218
SWIDTH 345 0
DWIDTH 12 0
BBX 5 7 4 -2
BITMAP
38
30
70
60
E0
E0
C0
ENDCHAR
STARTCHAR 201C
ENCODING 8220
SWIDTH 489 0
DWIDTH 17 0
BBX 11 7 3 19
BITMAP
E700
6380
7380
31C0
39C0
18C0
1CE0
ENDCHAR
STARTCHAR 201D
ENCODING 8221
SWIDTH 489 0
DWIDTH 17 0
BBX 11 7 3 19
BITMAP
1CE0
18C0
39C0
3180
7380
6300
E700
ENDCHAR
STARTCHAR 201E
ENCODING 8222
SWIDTH 489 0
DWIDTH 17 0
BBX 11 7 3 -2
BITMAP
1CE0
38C0
39C0
3180
7380
6380
E700
ENDCHAR
STARTCHAR 2020
ENCODING 8224
SWIDTH 547 0
DWIDTH 19 0
BBX 14 31 2 -6
BITMAP
0300
0300
0300
0300
0300
0300
0300
0300
FFFC
FFFC
0300
0300
0300
0300
0300
0300
0300
0300
0300
0300
0300
0300
0300
0300
0300
0300
0300
0300
0300
0300
0300
ENDCHAR
STARTCHAR 2021
ENCODING 8225
SWIDTH 547 0
DWIDTH 19 0
BBX 14 31 2 -5
BITMAP
0300
0300
0300
0300
0300
0300
0300
0300
FFFC
FFFC
0300
0300
0300
0300
0300
0300
0300
0300
0300
0300
0300
0300
FFFC
FFFC
0300
0300
0300
0300
0300
0300
0300
ENDCHAR
STARTCHAR 2022
ENCODING 8226
SWIDTH 604 0
DWIDTH 21 0
BBX 11 11 5 8
BITMAP
1F00
3F80
7FC0
FFE0
FFE0
FFE0
FFE0
FFE0
7FC0
3F80
1F00
ENDCHAR
STARTCHAR 2026
ENCODING 8230
SWIDTH 1008 0
DWIDTH 35 0
BBX 25 4 5 1
BITMAP
C0180180
C0180180
C0180180
C0180180
ENDCHAR
STARTCHAR 2030
ENCODING 8240
SWIDTH 1180 0
DWIDTH 41 0
BBX 39 26 1 0
BITMAP
0F80380000
3FC0300000
70E0600000
E070600000
C030C00000
C030C00000
C031800000
C033800000
E073000000
70E7000000
3FC6000000
1F8C000000
000C000000
0018000000
00387803E0
0031FE0FF8
0073871C1C
006703980C
00C601B006
00C601B006
018601B006
038601B006
030703980C
0703871C1C
0601FE0FF8
0C007803E0
ENDCHAR
STARTCHAR 2039
ENCODING 8249
SWIDTH 259 0
DWIDTH 9 0
BBX 6 14 1 3
BITMAP
08
1C
18
38
70
70
E0
E0
70
70
38
18
1C
08
ENDCHAR
STARTCHAR 203A
ENCODING 8250
SWIDTH 259 0
DWIDTH 9 0
BBX 6 14 1 3
BITMAP
40
E0
60
70
38
38
1C
1C
38
38
70
60
E0
40
ENDCHAR
STARTCHAR 20AC
ENCODING 8364
SWIDTH 547 0
DWIDTH 19 0
BBX 16 26 1 0
BITMAP
00FC
03FF
07FF
0E01
0C00
1800
1800
1800
3000
3000
FFFC
FFFC
3000
3000
3000
FFF8
FFF0
3000
3000
1800
1800
1C00
0E01
07FF
03FF
01FC
ENDCHAR
STARTCHAR 2122
ENCODING 8482
SWIDTH 1008 0
DWIDTH 35 0
BBX 28 16 0 10
BITMAP
FFCE0070
FFCE0070
0C0F00F0
0C0F00F0
0C0D81B0
0C0D81B0
0C0C8130
0C0CC330
0C0CC330
0C0C6630
0C0C6630
0C0C6430
0C0C3C30
0C0C3C30
0C0C1830
0C0C1830
ENDCHAR
STARTCHAR 2202
ENCODING 8706
SWIDTH 489 0
DWIDTH 17 0
BBX 14 25 1 -1
BITMAP
7F80
20C0
0060
0030
0018
0018
000C
000C
000C
000C
000C
0F8C
3C6C
701C
601C
E01C
C01C
C01C
C038
C038
C038
C070
60E0
31C0
1F80
ENDCHAR
STARTCHAR 2206
ENCODING 8710
SWIDTH 604 0
DWIDTH 21 0
BBX 21 23 0 1
BITMAP
001000
003000
003800
007800
007800
00FC00
00BC00
019E00
011E00
030E00
020F00
060700
040780
0C0780
0803C0
0803C0
1801C0
1001E0
3001E0
2000F0
6000F0
7FFFF0
FFFFF8
ENDCHAR
STARTCHAR 2211
ENCODING 8721
SWIDTH 604 0
DWIDTH 21 0
BBX 19 25 1 0
BITMAP
FFFF80
7FFF80
780180
380080
1C0080
0E0000
0F0000
078000
038000
01C000
01E000
00F000
007000
003000
006000
00C000
018000
030000
060000
0E0020
1C0020
180040
3001C0
7FFFC0
FFFFC0
ENDCHAR
STARTCHAR 2219
ENCODING 8729
SWIDTH 288 0
DWIDTH 10 0
BBX 2 4 4 7
BITMAP
C0
C0
C0
C0
ENDCHAR
STARTCHAR 221A
ENCODING 8730
SWIDTH 460 0
DWIDTH 16 0
BBX 15 28 0 -3
BITMAP
0006
0006
0006
0004
000C
000C
000C
000C
000C
000C
0018
1818
7818
CC18
0C18
0E18
0630
0730
0330
03B0
01B0
01B0
00F0
00E0
0060
0060
0020
0020
ENDCHAR
STARTCHAR 2260
ENCODING 8800
SWIDTH 547 0
DWIDTH 19 0
BBX 18 19 0 0
BITMAP
000C00
000E00
001C00
001C00
003800
FFFFC0
FFFFC0
00E000
00E000
01C000
01C000
038000
FFFFC0
FFFFC0
0E0000
0E0000
1C0000
1C0000
080000
ENDCHAR
STARTCHAR 2264
ENCODING 8804
SWIDTH 547 0
DWIDTH 19 0
BBX 17 23 1 0
BITMAP
000080
000380
000F80
003E00
01F800
07E000
1F8000
7E0000
F00000
F00000
FC0000
3F0000
07C000
01F800
007E00
001F80
000780
000080
000000
000000
FFFF80
FFFF80
FFFF80
ENDCHAR
STARTCHAR 2265
ENCODING 8805
SWIDTH 547 0
DWIDTH 19 0
BBX 17 23 1 0
BITMAP
800000
E00000
F80000
3E0000
0FC000
03F000
00FC00
003F00
000780
000780
001F80
007E00
01F000
0FC000
3F0000
FC0000
F00000
800000
000000
000000
FFFF80
FFFF80
FFFF80
ENDCHAR
STARTCHAR 25CA
ENCODING 9674
SWIDTH 460 0
DWIDTH 16 0
BBX 15 25 1 0
BITMAP
0380
0380
07C0
06C0
0EE0
0C60
1C70
1830
3838
701C
701C
E00E
E00E
E00C
701C
3018
3838
1830
1C70
0C60
0EE0
06C0
07C0
0380
0380
ENDCHAR
ENDFONT
